<mxfile host="app.diagrams.net" agent="Mozilla/5.0 (Windows NT 10.0; Win64; x64) AppleWebKit/537.36 (KHTML, like Gecko) Chrome/135.0.0.0 Safari/537.36" version="24.8.3">
  <diagram name="Página-1" id="A0tKuTQkq2YOdBoyb0Uf">
    <mxGraphModel grid="1" page="1" gridSize="10" guides="1" tooltips="1" connect="1" arrows="1" fold="1" pageScale="1" pageWidth="827" pageHeight="1169" math="0" shadow="0">
      <root>
        <mxCell id="0" />
        <mxCell id="1" parent="0" />
        <mxCell id="80IqMO9L08kLf_JqDXmp-1" value="Persona" style="rounded=0;whiteSpace=wrap;html=1;" vertex="1" parent="1">
          <mxGeometry x="50" y="90" width="120" height="60" as="geometry" />
        </mxCell>
        <mxCell id="80IqMO9L08kLf_JqDXmp-2" value="Profesor" style="rounded=0;whiteSpace=wrap;html=1;" vertex="1" parent="1">
          <mxGeometry x="650" y="355" width="120" height="60" as="geometry" />
        </mxCell>
        <mxCell id="80IqMO9L08kLf_JqDXmp-3" value="Alumno" style="rounded=0;whiteSpace=wrap;html=1;" vertex="1" parent="1">
          <mxGeometry x="50" y="350" width="120" height="60" as="geometry" />
        </mxCell>
        <mxCell id="80IqMO9L08kLf_JqDXmp-4" value="Clase" style="rounded=0;whiteSpace=wrap;html=1;" vertex="1" parent="1">
          <mxGeometry x="654" y="720" width="120" height="60" as="geometry" />
        </mxCell>
        <mxCell id="80IqMO9L08kLf_JqDXmp-6" value="Informe Periodico" style="rounded=0;whiteSpace=wrap;html=1;" vertex="1" parent="1">
          <mxGeometry x="-300" y="690" width="120" height="60" as="geometry" />
        </mxCell>
        <mxCell id="80IqMO9L08kLf_JqDXmp-7" value="Administrativo" style="rounded=0;whiteSpace=wrap;html=1;" vertex="1" parent="1">
          <mxGeometry x="-300" y="360" width="120" height="60" as="geometry" />
        </mxCell>
        <mxCell id="80IqMO9L08kLf_JqDXmp-8" value="" style="endArrow=none;html=1;rounded=0;entryX=1;entryY=0.5;entryDx=0;entryDy=0;exitX=0.5;exitY=0;exitDx=0;exitDy=0;" edge="1" parent="1" source="80IqMO9L08kLf_JqDXmp-7" target="80IqMO9L08kLf_JqDXmp-12">
          <mxGeometry width="50" height="50" relative="1" as="geometry">
            <mxPoint x="-80" y="260" as="sourcePoint" />
            <mxPoint x="-30" y="210" as="targetPoint" />
          </mxGeometry>
        </mxCell>
        <mxCell id="80IqMO9L08kLf_JqDXmp-9" value="" style="endArrow=none;html=1;rounded=0;exitX=0.5;exitY=0;exitDx=0;exitDy=0;entryX=1;entryY=0.5;entryDx=0;entryDy=0;" edge="1" parent="1" source="80IqMO9L08kLf_JqDXmp-3" target="80IqMO9L08kLf_JqDXmp-12">
          <mxGeometry width="50" height="50" relative="1" as="geometry">
            <mxPoint x="130" y="270" as="sourcePoint" />
            <mxPoint x="180" y="220" as="targetPoint" />
          </mxGeometry>
        </mxCell>
        <mxCell id="80IqMO9L08kLf_JqDXmp-10" value="" style="endArrow=none;html=1;rounded=0;exitX=0.5;exitY=0;exitDx=0;exitDy=0;entryX=1;entryY=0.5;entryDx=0;entryDy=0;" edge="1" parent="1" source="80IqMO9L08kLf_JqDXmp-2" target="80IqMO9L08kLf_JqDXmp-12">
          <mxGeometry width="50" height="50" relative="1" as="geometry">
            <mxPoint x="290" y="250" as="sourcePoint" />
            <mxPoint x="340" y="200" as="targetPoint" />
          </mxGeometry>
        </mxCell>
        <mxCell id="80IqMO9L08kLf_JqDXmp-11" value="" style="shape=requiredInterface;html=1;verticalLabelPosition=bottom;sketch=0;direction=south;" vertex="1" parent="1">
          <mxGeometry x="17.5" y="270" width="185" height="45" as="geometry" />
        </mxCell>
        <mxCell id="80IqMO9L08kLf_JqDXmp-12" value="" style="triangle;whiteSpace=wrap;html=1;direction=south;" vertex="1" parent="1">
          <mxGeometry x="70" y="220" width="80" height="60" as="geometry" />
        </mxCell>
        <mxCell id="80IqMO9L08kLf_JqDXmp-13" value="" style="endArrow=none;html=1;rounded=0;exitX=0;exitY=0.5;exitDx=0;exitDy=0;entryX=0.5;entryY=1;entryDx=0;entryDy=0;" edge="1" parent="1" source="80IqMO9L08kLf_JqDXmp-12" target="80IqMO9L08kLf_JqDXmp-1">
          <mxGeometry width="50" height="50" relative="1" as="geometry">
            <mxPoint x="290" y="300" as="sourcePoint" />
            <mxPoint x="340" y="250" as="targetPoint" />
          </mxGeometry>
        </mxCell>
        <mxCell id="80IqMO9L08kLf_JqDXmp-14" value="&lt;u&gt;id&lt;/u&gt;" style="ellipse;whiteSpace=wrap;html=1;" vertex="1" parent="1">
          <mxGeometry x="-100" y="60" width="80" height="50" as="geometry" />
        </mxCell>
        <mxCell id="80IqMO9L08kLf_JqDXmp-15" value="apellido" style="ellipse;whiteSpace=wrap;html=1;" vertex="1" parent="1">
          <mxGeometry y="10" width="80" height="50" as="geometry" />
        </mxCell>
        <mxCell id="80IqMO9L08kLf_JqDXmp-16" value="nombre" style="ellipse;whiteSpace=wrap;html=1;" vertex="1" parent="1">
          <mxGeometry x="240" y="80" width="80" height="50" as="geometry" />
        </mxCell>
        <mxCell id="80IqMO9L08kLf_JqDXmp-17" value="telefono" style="ellipse;whiteSpace=wrap;html=1;" vertex="1" parent="1">
          <mxGeometry x="180" y="10" width="80" height="50" as="geometry" />
        </mxCell>
        <mxCell id="80IqMO9L08kLf_JqDXmp-18" value="" style="endArrow=none;html=1;rounded=0;entryX=0;entryY=0.5;entryDx=0;entryDy=0;exitX=0.975;exitY=0.64;exitDx=0;exitDy=0;exitPerimeter=0;" edge="1" parent="1" source="80IqMO9L08kLf_JqDXmp-14" target="80IqMO9L08kLf_JqDXmp-1">
          <mxGeometry width="50" height="50" relative="1" as="geometry">
            <mxPoint x="-10" y="160" as="sourcePoint" />
            <mxPoint x="40" y="110" as="targetPoint" />
          </mxGeometry>
        </mxCell>
        <mxCell id="80IqMO9L08kLf_JqDXmp-19" value="" style="endArrow=none;html=1;rounded=0;entryX=0;entryY=0.5;entryDx=0;entryDy=0;exitX=1;exitY=0.5;exitDx=0;exitDy=0;" edge="1" parent="1" source="80IqMO9L08kLf_JqDXmp-1" target="80IqMO9L08kLf_JqDXmp-16">
          <mxGeometry width="50" height="50" relative="1" as="geometry">
            <mxPoint x="200" y="180" as="sourcePoint" />
            <mxPoint x="250" y="130" as="targetPoint" />
          </mxGeometry>
        </mxCell>
        <mxCell id="80IqMO9L08kLf_JqDXmp-20" value="" style="endArrow=none;html=1;rounded=0;exitX=0.308;exitY=0.033;exitDx=0;exitDy=0;exitPerimeter=0;entryX=0.713;entryY=0.94;entryDx=0;entryDy=0;entryPerimeter=0;" edge="1" parent="1" source="80IqMO9L08kLf_JqDXmp-1" target="80IqMO9L08kLf_JqDXmp-15">
          <mxGeometry width="50" height="50" relative="1" as="geometry">
            <mxPoint x="90" y="70" as="sourcePoint" />
            <mxPoint x="140" y="20" as="targetPoint" />
          </mxGeometry>
        </mxCell>
        <mxCell id="80IqMO9L08kLf_JqDXmp-21" value="" style="endArrow=none;html=1;rounded=0;entryX=0;entryY=1;entryDx=0;entryDy=0;exitX=0.75;exitY=0;exitDx=0;exitDy=0;" edge="1" parent="1" source="80IqMO9L08kLf_JqDXmp-1" target="80IqMO9L08kLf_JqDXmp-17">
          <mxGeometry width="50" height="50" relative="1" as="geometry">
            <mxPoint x="120" y="70" as="sourcePoint" />
            <mxPoint x="170" y="20" as="targetPoint" />
          </mxGeometry>
        </mxCell>
        <mxCell id="80IqMO9L08kLf_JqDXmp-23" value="fechaNacimiento" style="ellipse;whiteSpace=wrap;html=1;" vertex="1" parent="1">
          <mxGeometry x="-30" y="450" width="110" height="50" as="geometry" />
        </mxCell>
        <mxCell id="80IqMO9L08kLf_JqDXmp-24" value="" style="endArrow=none;html=1;rounded=0;entryX=0.183;entryY=1.033;entryDx=0;entryDy=0;entryPerimeter=0;exitX=0.645;exitY=0.06;exitDx=0;exitDy=0;exitPerimeter=0;" edge="1" parent="1" source="80IqMO9L08kLf_JqDXmp-23" target="80IqMO9L08kLf_JqDXmp-3">
          <mxGeometry width="50" height="50" relative="1" as="geometry">
            <mxPoint x="10" y="470" as="sourcePoint" />
            <mxPoint x="60" y="420" as="targetPoint" />
          </mxGeometry>
        </mxCell>
        <mxCell id="80IqMO9L08kLf_JqDXmp-25" value="añosExperiencia" style="ellipse;whiteSpace=wrap;html=1;" vertex="1" parent="1">
          <mxGeometry x="840" y="355" width="110" height="50" as="geometry" />
        </mxCell>
        <mxCell id="80IqMO9L08kLf_JqDXmp-26" value="" style="endArrow=none;html=1;rounded=0;entryX=1;entryY=0.5;entryDx=0;entryDy=0;exitX=0;exitY=0.5;exitDx=0;exitDy=0;" edge="1" parent="1" source="80IqMO9L08kLf_JqDXmp-25" target="80IqMO9L08kLf_JqDXmp-2">
          <mxGeometry width="50" height="50" relative="1" as="geometry">
            <mxPoint x="600" y="485" as="sourcePoint" />
            <mxPoint x="650" y="435" as="targetPoint" />
          </mxGeometry>
        </mxCell>
        <mxCell id="80IqMO9L08kLf_JqDXmp-27" value="realiza" style="rhombus;whiteSpace=wrap;html=1;" vertex="1" parent="1">
          <mxGeometry x="70" y="570" width="80" height="80" as="geometry" />
        </mxCell>
        <mxCell id="80IqMO9L08kLf_JqDXmp-28" value="Test" style="rounded=0;whiteSpace=wrap;html=1;" vertex="1" parent="1">
          <mxGeometry x="50" y="760" width="120" height="60" as="geometry" />
        </mxCell>
        <mxCell id="80IqMO9L08kLf_JqDXmp-29" value="" style="endArrow=none;html=1;rounded=0;entryX=0.5;entryY=1;entryDx=0;entryDy=0;exitX=0.5;exitY=0;exitDx=0;exitDy=0;" edge="1" parent="1" source="80IqMO9L08kLf_JqDXmp-27" target="80IqMO9L08kLf_JqDXmp-3">
          <mxGeometry width="50" height="50" relative="1" as="geometry">
            <mxPoint x="70" y="550" as="sourcePoint" />
            <mxPoint x="120" y="500" as="targetPoint" />
          </mxGeometry>
        </mxCell>
        <mxCell id="80IqMO9L08kLf_JqDXmp-30" value="" style="endArrow=none;html=1;rounded=0;exitX=0.5;exitY=0;exitDx=0;exitDy=0;entryX=0.5;entryY=1;entryDx=0;entryDy=0;" edge="1" parent="1" source="80IqMO9L08kLf_JqDXmp-28" target="80IqMO9L08kLf_JqDXmp-27">
          <mxGeometry width="50" height="50" relative="1" as="geometry">
            <mxPoint x="100" y="740" as="sourcePoint" />
            <mxPoint x="150" y="690" as="targetPoint" />
          </mxGeometry>
        </mxCell>
        <mxCell id="80IqMO9L08kLf_JqDXmp-31" value="&lt;u&gt;id&lt;/u&gt;" style="ellipse;whiteSpace=wrap;html=1;" vertex="1" parent="1">
          <mxGeometry x="-80" y="740" width="80" height="50" as="geometry" />
        </mxCell>
        <mxCell id="80IqMO9L08kLf_JqDXmp-32" value="numTestRealizados" style="ellipse;whiteSpace=wrap;html=1;" vertex="1" parent="1">
          <mxGeometry x="-90" y="830" width="120" height="60" as="geometry" />
        </mxCell>
        <mxCell id="80IqMO9L08kLf_JqDXmp-33" value="% test Aprobados" style="ellipse;whiteSpace=wrap;html=1;" vertex="1" parent="1">
          <mxGeometry x="230" y="770" width="80" height="50" as="geometry" />
        </mxCell>
        <mxCell id="80IqMO9L08kLf_JqDXmp-34" value="" style="endArrow=none;html=1;rounded=0;exitX=1;exitY=0.5;exitDx=0;exitDy=0;entryX=0;entryY=0.5;entryDx=0;entryDy=0;" edge="1" parent="1" source="80IqMO9L08kLf_JqDXmp-31" target="80IqMO9L08kLf_JqDXmp-28">
          <mxGeometry width="50" height="50" relative="1" as="geometry">
            <mxPoint x="50" y="720" as="sourcePoint" />
            <mxPoint x="100" y="670" as="targetPoint" />
          </mxGeometry>
        </mxCell>
        <mxCell id="80IqMO9L08kLf_JqDXmp-35" value="" style="endArrow=none;html=1;rounded=0;entryX=0;entryY=1;entryDx=0;entryDy=0;exitX=0.925;exitY=0.2;exitDx=0;exitDy=0;exitPerimeter=0;" edge="1" parent="1" source="80IqMO9L08kLf_JqDXmp-32" target="80IqMO9L08kLf_JqDXmp-28">
          <mxGeometry width="50" height="50" relative="1" as="geometry">
            <mxPoint x="50" y="920" as="sourcePoint" />
            <mxPoint x="100" y="870" as="targetPoint" />
          </mxGeometry>
        </mxCell>
        <mxCell id="80IqMO9L08kLf_JqDXmp-36" value="" style="endArrow=none;html=1;rounded=0;exitX=1;exitY=0.5;exitDx=0;exitDy=0;entryX=0;entryY=0.5;entryDx=0;entryDy=0;" edge="1" parent="1" source="80IqMO9L08kLf_JqDXmp-28" target="80IqMO9L08kLf_JqDXmp-33">
          <mxGeometry width="50" height="50" relative="1" as="geometry">
            <mxPoint x="220" y="810" as="sourcePoint" />
            <mxPoint x="270" y="760" as="targetPoint" />
          </mxGeometry>
        </mxCell>
        <mxCell id="80IqMO9L08kLf_JqDXmp-37" value="realiza" style="rhombus;whiteSpace=wrap;html=1;" vertex="1" parent="1">
          <mxGeometry x="-280" y="530" width="80" height="80" as="geometry" />
        </mxCell>
        <mxCell id="80IqMO9L08kLf_JqDXmp-39" value="" style="endArrow=none;html=1;rounded=0;entryX=0.5;entryY=1;entryDx=0;entryDy=0;exitX=0.5;exitY=0;exitDx=0;exitDy=0;" edge="1" parent="1" source="80IqMO9L08kLf_JqDXmp-6" target="80IqMO9L08kLf_JqDXmp-37">
          <mxGeometry width="50" height="50" relative="1" as="geometry">
            <mxPoint x="-370" y="720" as="sourcePoint" />
            <mxPoint x="-320" y="670" as="targetPoint" />
          </mxGeometry>
        </mxCell>
        <mxCell id="80IqMO9L08kLf_JqDXmp-40" value="" style="endArrow=none;html=1;rounded=0;entryX=0.5;entryY=1;entryDx=0;entryDy=0;exitX=0.5;exitY=0;exitDx=0;exitDy=0;" edge="1" parent="1" source="80IqMO9L08kLf_JqDXmp-37" target="80IqMO9L08kLf_JqDXmp-7">
          <mxGeometry width="50" height="50" relative="1" as="geometry">
            <mxPoint x="-200" y="500" as="sourcePoint" />
            <mxPoint x="-150" y="450" as="targetPoint" />
          </mxGeometry>
        </mxCell>
        <mxCell id="80IqMO9L08kLf_JqDXmp-42" value="numTestRealizados" style="ellipse;whiteSpace=wrap;html=1;" vertex="1" parent="1">
          <mxGeometry x="-550" y="710" width="120" height="60" as="geometry" />
        </mxCell>
        <mxCell id="80IqMO9L08kLf_JqDXmp-43" value="" style="endArrow=none;html=1;rounded=0;entryX=0;entryY=0.5;entryDx=0;entryDy=0;" edge="1" parent="1" source="80IqMO9L08kLf_JqDXmp-42" target="80IqMO9L08kLf_JqDXmp-6">
          <mxGeometry width="50" height="50" relative="1" as="geometry">
            <mxPoint x="-400" y="780" as="sourcePoint" />
            <mxPoint x="-350" y="730" as="targetPoint" />
          </mxGeometry>
        </mxCell>
        <mxCell id="80IqMO9L08kLf_JqDXmp-44" value="fallos" style="ellipse;whiteSpace=wrap;html=1;" vertex="1" parent="1">
          <mxGeometry x="-460" y="775" width="90" height="60" as="geometry" />
        </mxCell>
        <mxCell id="80IqMO9L08kLf_JqDXmp-45" value="Aciertos" style="ellipse;whiteSpace=wrap;html=1;" vertex="1" parent="1">
          <mxGeometry x="-520" y="620" width="90" height="50" as="geometry" />
        </mxCell>
        <mxCell id="80IqMO9L08kLf_JqDXmp-46" value="" style="endArrow=none;html=1;rounded=0;exitX=1;exitY=0.5;exitDx=0;exitDy=0;entryX=0;entryY=0.25;entryDx=0;entryDy=0;" edge="1" parent="1" source="80IqMO9L08kLf_JqDXmp-45" target="80IqMO9L08kLf_JqDXmp-6">
          <mxGeometry width="50" height="50" relative="1" as="geometry">
            <mxPoint x="-400" y="690" as="sourcePoint" />
            <mxPoint x="-350" y="640" as="targetPoint" />
          </mxGeometry>
        </mxCell>
        <mxCell id="80IqMO9L08kLf_JqDXmp-47" value="" style="endArrow=none;html=1;rounded=0;entryX=0;entryY=1;entryDx=0;entryDy=0;exitX=0.956;exitY=0.3;exitDx=0;exitDy=0;exitPerimeter=0;" edge="1" parent="1" source="80IqMO9L08kLf_JqDXmp-44" target="80IqMO9L08kLf_JqDXmp-6">
          <mxGeometry width="50" height="50" relative="1" as="geometry">
            <mxPoint x="-330" y="840" as="sourcePoint" />
            <mxPoint x="-280" y="790" as="targetPoint" />
          </mxGeometry>
        </mxCell>
        <mxCell id="80IqMO9L08kLf_JqDXmp-48" value="propone" style="rhombus;whiteSpace=wrap;html=1;" vertex="1" parent="1">
          <mxGeometry x="674" y="545" width="80" height="80" as="geometry" />
        </mxCell>
        <mxCell id="80IqMO9L08kLf_JqDXmp-49" value="" style="endArrow=none;html=1;rounded=0;exitX=0.5;exitY=0;exitDx=0;exitDy=0;entryX=0.5;entryY=1;entryDx=0;entryDy=0;" edge="1" parent="1" source="80IqMO9L08kLf_JqDXmp-48" target="80IqMO9L08kLf_JqDXmp-2">
          <mxGeometry width="50" height="50" relative="1" as="geometry">
            <mxPoint x="630" y="515" as="sourcePoint" />
            <mxPoint x="680" y="465" as="targetPoint" />
          </mxGeometry>
        </mxCell>
        <mxCell id="80IqMO9L08kLf_JqDXmp-50" value="" style="endArrow=none;html=1;rounded=0;exitX=0.5;exitY=0;exitDx=0;exitDy=0;entryX=0.5;entryY=1;entryDx=0;entryDy=0;" edge="1" parent="1" source="80IqMO9L08kLf_JqDXmp-4" target="80IqMO9L08kLf_JqDXmp-48">
          <mxGeometry width="50" height="50" relative="1" as="geometry">
            <mxPoint x="720" y="735" as="sourcePoint" />
            <mxPoint x="770" y="685" as="targetPoint" />
          </mxGeometry>
        </mxCell>
        <mxCell id="80IqMO9L08kLf_JqDXmp-51" value="&lt;u&gt;id&lt;/u&gt;" style="ellipse;whiteSpace=wrap;html=1;" vertex="1" parent="1">
          <mxGeometry x="830" y="735" width="80" height="50" as="geometry" />
        </mxCell>
        <mxCell id="80IqMO9L08kLf_JqDXmp-52" value="fecha" style="ellipse;whiteSpace=wrap;html=1;" vertex="1" parent="1">
          <mxGeometry x="770" y="805" width="80" height="50" as="geometry" />
        </mxCell>
        <mxCell id="80IqMO9L08kLf_JqDXmp-53" value="fk_id_Alumno" style="ellipse;whiteSpace=wrap;html=1;" vertex="1" parent="1">
          <mxGeometry x="660" y="815" width="80" height="50" as="geometry" />
        </mxCell>
        <mxCell id="80IqMO9L08kLf_JqDXmp-54" value="" style="endArrow=none;html=1;rounded=0;exitX=0.5;exitY=0;exitDx=0;exitDy=0;entryX=0.392;entryY=1;entryDx=0;entryDy=0;entryPerimeter=0;" edge="1" parent="1" source="80IqMO9L08kLf_JqDXmp-53" target="80IqMO9L08kLf_JqDXmp-4">
          <mxGeometry width="50" height="50" relative="1" as="geometry">
            <mxPoint x="680" y="845" as="sourcePoint" />
            <mxPoint x="730" y="795" as="targetPoint" />
          </mxGeometry>
        </mxCell>
        <mxCell id="80IqMO9L08kLf_JqDXmp-55" value="" style="endArrow=none;html=1;rounded=0;exitX=1;exitY=1;exitDx=0;exitDy=0;entryX=0.338;entryY=0.04;entryDx=0;entryDy=0;entryPerimeter=0;" edge="1" parent="1" source="80IqMO9L08kLf_JqDXmp-4" target="80IqMO9L08kLf_JqDXmp-52">
          <mxGeometry width="50" height="50" relative="1" as="geometry">
            <mxPoint x="800" y="835" as="sourcePoint" />
            <mxPoint x="850" y="785" as="targetPoint" />
          </mxGeometry>
        </mxCell>
        <mxCell id="80IqMO9L08kLf_JqDXmp-56" value="" style="endArrow=none;html=1;rounded=0;exitX=1;exitY=0.5;exitDx=0;exitDy=0;entryX=0;entryY=0.5;entryDx=0;entryDy=0;" edge="1" parent="1" source="80IqMO9L08kLf_JqDXmp-4" target="80IqMO9L08kLf_JqDXmp-51">
          <mxGeometry width="50" height="50" relative="1" as="geometry">
            <mxPoint x="810" y="745" as="sourcePoint" />
            <mxPoint x="860" y="695" as="targetPoint" />
          </mxGeometry>
        </mxCell>
        <mxCell id="80IqMO9L08kLf_JqDXmp-58" value="fk_id_Alumno" style="ellipse;whiteSpace=wrap;html=1;" vertex="1" parent="1">
          <mxGeometry x="660" y="815" width="80" height="50" as="geometry" />
        </mxCell>
        <mxCell id="80IqMO9L08kLf_JqDXmp-59" value="fk_id_profesor" style="ellipse;whiteSpace=wrap;html=1;" vertex="1" parent="1">
          <mxGeometry x="840" y="665" width="80" height="50" as="geometry" />
        </mxCell>
        <mxCell id="80IqMO9L08kLf_JqDXmp-60" value="" style="endArrow=none;html=1;rounded=0;exitX=1;exitY=0;exitDx=0;exitDy=0;entryX=0.038;entryY=0.68;entryDx=0;entryDy=0;entryPerimeter=0;" edge="1" parent="1" source="80IqMO9L08kLf_JqDXmp-4" target="80IqMO9L08kLf_JqDXmp-59">
          <mxGeometry width="50" height="50" relative="1" as="geometry">
            <mxPoint x="780" y="685" as="sourcePoint" />
            <mxPoint x="830" y="695" as="targetPoint" />
          </mxGeometry>
        </mxCell>
        <mxCell id="80IqMO9L08kLf_JqDXmp-61" value="fk_id_Alumno" style="ellipse;whiteSpace=wrap;html=1;" vertex="1" parent="1">
          <mxGeometry x="160" y="865" width="80" height="50" as="geometry" />
        </mxCell>
        <mxCell id="80IqMO9L08kLf_JqDXmp-62" value="" style="endArrow=none;html=1;rounded=0;exitX=0.5;exitY=0;exitDx=0;exitDy=0;entryX=1;entryY=1;entryDx=0;entryDy=0;" edge="1" parent="1" source="80IqMO9L08kLf_JqDXmp-61" target="80IqMO9L08kLf_JqDXmp-28">
          <mxGeometry width="50" height="50" relative="1" as="geometry">
            <mxPoint x="220" y="930" as="sourcePoint" />
            <mxPoint x="270" y="880" as="targetPoint" />
          </mxGeometry>
        </mxCell>
        <mxCell id="80IqMO9L08kLf_JqDXmp-63" value="fk_id_Alumno" style="ellipse;whiteSpace=wrap;html=1;" vertex="1" parent="1">
          <mxGeometry x="-290" y="835" width="80" height="50" as="geometry" />
        </mxCell>
        <mxCell id="80IqMO9L08kLf_JqDXmp-64" value="" style="endArrow=none;html=1;rounded=0;exitX=0.5;exitY=0;exitDx=0;exitDy=0;entryX=0.5;entryY=1;entryDx=0;entryDy=0;" edge="1" parent="1" source="80IqMO9L08kLf_JqDXmp-63" target="80IqMO9L08kLf_JqDXmp-6">
          <mxGeometry width="50" height="50" relative="1" as="geometry">
            <mxPoint x="-270" y="820" as="sourcePoint" />
            <mxPoint x="-220" y="770" as="targetPoint" />
          </mxGeometry>
        </mxCell>
        <mxCell id="80IqMO9L08kLf_JqDXmp-65" value="Examen" style="rounded=0;whiteSpace=wrap;html=1;" vertex="1" parent="1">
          <mxGeometry x="410" y="730" width="120" height="60" as="geometry" />
        </mxCell>
        <mxCell id="80IqMO9L08kLf_JqDXmp-66" value="realiza" style="rhombus;whiteSpace=wrap;html=1;" vertex="1" parent="1">
          <mxGeometry x="430" y="545" width="80" height="80" as="geometry" />
        </mxCell>
        <mxCell id="80IqMO9L08kLf_JqDXmp-67" value="" style="endArrow=none;html=1;rounded=0;exitX=1;exitY=0.75;exitDx=0;exitDy=0;entryX=0.5;entryY=0;entryDx=0;entryDy=0;" edge="1" parent="1" source="80IqMO9L08kLf_JqDXmp-3" target="80IqMO9L08kLf_JqDXmp-66">
          <mxGeometry width="50" height="50" relative="1" as="geometry">
            <mxPoint x="230" y="500" as="sourcePoint" />
            <mxPoint x="280" y="450" as="targetPoint" />
          </mxGeometry>
        </mxCell>
        <mxCell id="80IqMO9L08kLf_JqDXmp-68" value="" style="endArrow=none;html=1;rounded=0;exitX=0.5;exitY=0;exitDx=0;exitDy=0;entryX=0.5;entryY=1;entryDx=0;entryDy=0;" edge="1" parent="1" source="80IqMO9L08kLf_JqDXmp-65" target="80IqMO9L08kLf_JqDXmp-66">
          <mxGeometry width="50" height="50" relative="1" as="geometry">
            <mxPoint x="450" y="710" as="sourcePoint" />
            <mxPoint x="469" y="630" as="targetPoint" />
          </mxGeometry>
        </mxCell>
        <mxCell id="80IqMO9L08kLf_JqDXmp-69" value="fk_id_Alumno" style="ellipse;whiteSpace=wrap;html=1;" vertex="1" parent="1">
          <mxGeometry x="440" y="865" width="80" height="50" as="geometry" />
        </mxCell>
        <mxCell id="80IqMO9L08kLf_JqDXmp-70" value="&lt;u&gt;id&lt;/u&gt;" style="ellipse;whiteSpace=wrap;html=1;" vertex="1" parent="1">
          <mxGeometry x="310" y="855" width="80" height="50" as="geometry" />
        </mxCell>
        <mxCell id="80IqMO9L08kLf_JqDXmp-71" value="fecha" style="ellipse;whiteSpace=wrap;html=1;" vertex="1" parent="1">
          <mxGeometry x="530" y="830" width="80" height="50" as="geometry" />
        </mxCell>
        <mxCell id="80IqMO9L08kLf_JqDXmp-72" value="" style="endArrow=none;html=1;rounded=0;exitX=0.725;exitY=0.06;exitDx=0;exitDy=0;exitPerimeter=0;entryX=0.075;entryY=1.05;entryDx=0;entryDy=0;entryPerimeter=0;" edge="1" parent="1" source="80IqMO9L08kLf_JqDXmp-70" target="80IqMO9L08kLf_JqDXmp-65">
          <mxGeometry width="50" height="50" relative="1" as="geometry">
            <mxPoint x="400" y="860" as="sourcePoint" />
            <mxPoint x="450" y="810" as="targetPoint" />
          </mxGeometry>
        </mxCell>
        <mxCell id="80IqMO9L08kLf_JqDXmp-73" value="tipo" style="ellipse;whiteSpace=wrap;html=1;" vertex="1" parent="1">
          <mxGeometry x="280" y="715" width="80" height="40" as="geometry" />
        </mxCell>
        <mxCell id="80IqMO9L08kLf_JqDXmp-74" value="" style="endArrow=none;html=1;rounded=0;exitX=0.425;exitY=0.06;exitDx=0;exitDy=0;exitPerimeter=0;entryX=0.5;entryY=1;entryDx=0;entryDy=0;" edge="1" parent="1" source="80IqMO9L08kLf_JqDXmp-69" target="80IqMO9L08kLf_JqDXmp-65">
          <mxGeometry width="50" height="50" relative="1" as="geometry">
            <mxPoint x="430" y="860" as="sourcePoint" />
            <mxPoint x="480" y="810" as="targetPoint" />
          </mxGeometry>
        </mxCell>
        <mxCell id="80IqMO9L08kLf_JqDXmp-75" value="" style="endArrow=none;html=1;rounded=0;exitX=1;exitY=0.5;exitDx=0;exitDy=0;entryX=0;entryY=0.5;entryDx=0;entryDy=0;" edge="1" parent="1" source="80IqMO9L08kLf_JqDXmp-73" target="80IqMO9L08kLf_JqDXmp-65">
          <mxGeometry width="50" height="50" relative="1" as="geometry">
            <mxPoint x="390" y="680" as="sourcePoint" />
            <mxPoint x="440" y="630" as="targetPoint" />
          </mxGeometry>
        </mxCell>
        <mxCell id="80IqMO9L08kLf_JqDXmp-76" value="" style="endArrow=none;html=1;rounded=0;exitX=0.363;exitY=0;exitDx=0;exitDy=0;exitPerimeter=0;entryX=0.75;entryY=1;entryDx=0;entryDy=0;" edge="1" parent="1" source="80IqMO9L08kLf_JqDXmp-71" target="80IqMO9L08kLf_JqDXmp-65">
          <mxGeometry width="50" height="50" relative="1" as="geometry">
            <mxPoint x="540" y="830" as="sourcePoint" />
            <mxPoint x="590" y="780" as="targetPoint" />
          </mxGeometry>
        </mxCell>
        <mxCell id="80IqMO9L08kLf_JqDXmp-78" value="1:N" style="text;html=1;align=center;verticalAlign=middle;whiteSpace=wrap;rounded=0;" vertex="1" parent="1">
          <mxGeometry x="-230" y="650" width="60" height="30" as="geometry" />
        </mxCell>
        <mxCell id="80IqMO9L08kLf_JqDXmp-79" value="1:1" style="text;html=1;align=center;verticalAlign=middle;whiteSpace=wrap;rounded=0;" vertex="1" parent="1">
          <mxGeometry x="-230" y="430" width="60" height="30" as="geometry" />
        </mxCell>
        <mxCell id="80IqMO9L08kLf_JqDXmp-80" value="1:N" style="text;html=1;align=center;verticalAlign=middle;whiteSpace=wrap;rounded=0;" vertex="1" parent="1">
          <mxGeometry x="-200" y="555" width="60" height="30" as="geometry" />
        </mxCell>
        <mxCell id="80IqMO9L08kLf_JqDXmp-81" value="1:N" style="text;html=1;align=center;verticalAlign=middle;whiteSpace=wrap;rounded=0;" vertex="1" parent="1">
          <mxGeometry x="120" y="725" width="60" height="30" as="geometry" />
        </mxCell>
        <mxCell id="80IqMO9L08kLf_JqDXmp-82" value="1:1" style="text;html=1;align=center;verticalAlign=middle;whiteSpace=wrap;rounded=0;" vertex="1" parent="1">
          <mxGeometry x="120" y="420" width="60" height="30" as="geometry" />
        </mxCell>
        <mxCell id="80IqMO9L08kLf_JqDXmp-83" value="1:N" style="text;html=1;align=center;verticalAlign=middle;whiteSpace=wrap;rounded=0;" vertex="1" parent="1">
          <mxGeometry x="160" y="595" width="60" height="30" as="geometry" />
        </mxCell>
        <mxCell id="80IqMO9L08kLf_JqDXmp-84" value="1:N" style="text;html=1;align=center;verticalAlign=middle;whiteSpace=wrap;rounded=0;" vertex="1" parent="1">
          <mxGeometry x="480" y="680" width="60" height="30" as="geometry" />
        </mxCell>
        <mxCell id="80IqMO9L08kLf_JqDXmp-85" value="1:1" style="text;html=1;align=center;verticalAlign=middle;whiteSpace=wrap;rounded=0;" vertex="1" parent="1">
          <mxGeometry x="180" y="385" width="60" height="30" as="geometry" />
        </mxCell>
        <mxCell id="80IqMO9L08kLf_JqDXmp-86" value="1:N" style="text;html=1;align=center;verticalAlign=middle;whiteSpace=wrap;rounded=0;" vertex="1" parent="1">
          <mxGeometry x="510" y="565" width="60" height="30" as="geometry" />
        </mxCell>
        <mxCell id="80IqMO9L08kLf_JqDXmp-87" value="1:N" style="text;html=1;align=center;verticalAlign=middle;whiteSpace=wrap;rounded=0;" vertex="1" parent="1">
          <mxGeometry x="730" y="680" width="60" height="30" as="geometry" />
        </mxCell>
        <mxCell id="80IqMO9L08kLf_JqDXmp-88" value="1:1:N" style="text;html=1;align=center;verticalAlign=middle;whiteSpace=wrap;rounded=0;" vertex="1" parent="1">
          <mxGeometry x="754" y="570" width="60" height="30" as="geometry" />
        </mxCell>
        <mxCell id="80IqMO9L08kLf_JqDXmp-89" value="1:1" style="text;html=1;align=center;verticalAlign=middle;whiteSpace=wrap;rounded=0;" vertex="1" parent="1">
          <mxGeometry x="714" y="430" width="60" height="30" as="geometry" />
        </mxCell>
        <mxCell id="80IqMO9L08kLf_JqDXmp-90" value="1:1" style="text;html=1;align=center;verticalAlign=middle;whiteSpace=wrap;rounded=0;" vertex="1" parent="1">
          <mxGeometry x="120" y="160" width="60" height="30" as="geometry" />
        </mxCell>
        <mxCell id="80IqMO9L08kLf_JqDXmp-91" value="0:1" style="text;html=1;align=center;verticalAlign=middle;whiteSpace=wrap;rounded=0;" vertex="1" parent="1">
          <mxGeometry x="30" y="320" width="60" height="30" as="geometry" />
        </mxCell>
        <mxCell id="80IqMO9L08kLf_JqDXmp-92" value="0:1" style="text;html=1;align=center;verticalAlign=middle;whiteSpace=wrap;rounded=0;" vertex="1" parent="1">
          <mxGeometry x="-260" y="320" width="60" height="30" as="geometry" />
        </mxCell>
        <mxCell id="80IqMO9L08kLf_JqDXmp-93" value="0:1" style="text;html=1;align=center;verticalAlign=middle;whiteSpace=wrap;rounded=0;" vertex="1" parent="1">
          <mxGeometry x="650" y="300" width="60" height="30" as="geometry" />
        </mxCell>
        <mxCell id="80IqMO9L08kLf_JqDXmp-94" value="&lt;u&gt;id&lt;/u&gt;" style="ellipse;whiteSpace=wrap;html=1;" vertex="1" parent="1">
          <mxGeometry x="-200" y="790" width="80" height="50" as="geometry" />
        </mxCell>
        <mxCell id="80IqMO9L08kLf_JqDXmp-95" value="" style="endArrow=none;html=1;rounded=0;exitX=0.5;exitY=0;exitDx=0;exitDy=0;entryX=0.75;entryY=1;entryDx=0;entryDy=0;" edge="1" parent="1" source="80IqMO9L08kLf_JqDXmp-94" target="80IqMO9L08kLf_JqDXmp-6">
          <mxGeometry width="50" height="50" relative="1" as="geometry">
            <mxPoint x="-170" y="780" as="sourcePoint" />
            <mxPoint x="-120" y="730" as="targetPoint" />
          </mxGeometry>
        </mxCell>
        <mxCell id="80IqMO9L08kLf_JqDXmp-96" value="Preguntas" style="rounded=0;whiteSpace=wrap;html=1;" vertex="1" parent="1">
          <mxGeometry x="50" y="1090" width="120" height="60" as="geometry" />
        </mxCell>
        <mxCell id="80IqMO9L08kLf_JqDXmp-97" value="contiene" style="rhombus;whiteSpace=wrap;html=1;" vertex="1" parent="1">
          <mxGeometry x="70" y="920" width="80" height="80" as="geometry" />
        </mxCell>
        <mxCell id="80IqMO9L08kLf_JqDXmp-98" value="" style="endArrow=none;html=1;rounded=0;entryX=0.5;entryY=1;entryDx=0;entryDy=0;exitX=0.5;exitY=0;exitDx=0;exitDy=0;" edge="1" parent="1" source="80IqMO9L08kLf_JqDXmp-97" target="80IqMO9L08kLf_JqDXmp-28">
          <mxGeometry width="50" height="50" relative="1" as="geometry">
            <mxPoint x="20" y="910" as="sourcePoint" />
            <mxPoint x="70" y="860" as="targetPoint" />
          </mxGeometry>
        </mxCell>
        <mxCell id="80IqMO9L08kLf_JqDXmp-99" value="" style="endArrow=none;html=1;rounded=0;exitX=0.5;exitY=0;exitDx=0;exitDy=0;entryX=0.5;entryY=1;entryDx=0;entryDy=0;" edge="1" parent="1" source="80IqMO9L08kLf_JqDXmp-96" target="80IqMO9L08kLf_JqDXmp-97">
          <mxGeometry width="50" height="50" relative="1" as="geometry">
            <mxPoint x="100" y="1080" as="sourcePoint" />
            <mxPoint x="150" y="1030" as="targetPoint" />
          </mxGeometry>
        </mxCell>
        <mxCell id="80IqMO9L08kLf_JqDXmp-100" value="enunciado" style="ellipse;whiteSpace=wrap;html=1;" vertex="1" parent="1">
          <mxGeometry x="-100" y="1040" width="90" height="60" as="geometry" />
        </mxCell>
        <mxCell id="80IqMO9L08kLf_JqDXmp-101" value="" style="endArrow=none;html=1;rounded=0;entryX=0;entryY=0.5;entryDx=0;entryDy=0;exitX=1;exitY=0.5;exitDx=0;exitDy=0;" edge="1" parent="1" source="80IqMO9L08kLf_JqDXmp-100" target="80IqMO9L08kLf_JqDXmp-96">
          <mxGeometry width="50" height="50" relative="1" as="geometry">
            <mxPoint x="-50" y="1160" as="sourcePoint" />
            <mxPoint y="1110" as="targetPoint" />
          </mxGeometry>
        </mxCell>
        <mxCell id="-_hjf6f2TeY9m6gbgmaV-1" value="Persona" style="shape=table;startSize=30;container=1;collapsible=0;childLayout=tableLayout;strokeColor=default;fontSize=16;" vertex="1" parent="1">
          <mxGeometry x="2280" y="40" width="400" height="150" as="geometry" />
        </mxCell>
        <mxCell id="-_hjf6f2TeY9m6gbgmaV-2" value="" style="shape=tableRow;horizontal=0;startSize=0;swimlaneHead=0;swimlaneBody=0;strokeColor=inherit;top=0;left=0;bottom=0;right=0;collapsible=0;dropTarget=0;fillColor=none;points=[[0,0.5],[1,0.5]];portConstraint=eastwest;fontSize=16;" vertex="1" parent="-_hjf6f2TeY9m6gbgmaV-1">
          <mxGeometry y="30" width="400" height="40" as="geometry" />
        </mxCell>
        <mxCell id="-_hjf6f2TeY9m6gbgmaV-3" value="pk_id" style="shape=partialRectangle;html=1;whiteSpace=wrap;connectable=0;strokeColor=inherit;overflow=hidden;fillColor=none;top=0;left=0;bottom=0;right=0;pointerEvents=1;fontSize=16;" vertex="1" parent="-_hjf6f2TeY9m6gbgmaV-2">
          <mxGeometry width="100" height="40" as="geometry">
            <mxRectangle width="100" height="40" as="alternateBounds" />
          </mxGeometry>
        </mxCell>
        <mxCell id="-_hjf6f2TeY9m6gbgmaV-4" value="apellido" style="shape=partialRectangle;html=1;whiteSpace=wrap;connectable=0;strokeColor=inherit;overflow=hidden;fillColor=none;top=0;left=0;bottom=0;right=0;pointerEvents=1;fontSize=16;" vertex="1" parent="-_hjf6f2TeY9m6gbgmaV-2">
          <mxGeometry x="100" width="100" height="40" as="geometry">
            <mxRectangle width="100" height="40" as="alternateBounds" />
          </mxGeometry>
        </mxCell>
        <mxCell id="-_hjf6f2TeY9m6gbgmaV-5" value="telefono" style="shape=partialRectangle;html=1;whiteSpace=wrap;connectable=0;strokeColor=inherit;overflow=hidden;fillColor=none;top=0;left=0;bottom=0;right=0;pointerEvents=1;fontSize=16;" vertex="1" parent="-_hjf6f2TeY9m6gbgmaV-2">
          <mxGeometry x="200" width="100" height="40" as="geometry">
            <mxRectangle width="100" height="40" as="alternateBounds" />
          </mxGeometry>
        </mxCell>
        <mxCell id="-_hjf6f2TeY9m6gbgmaV-14" value="nombre" style="shape=partialRectangle;html=1;whiteSpace=wrap;connectable=0;strokeColor=inherit;overflow=hidden;fillColor=none;top=0;left=0;bottom=0;right=0;pointerEvents=1;fontSize=16;" vertex="1" parent="-_hjf6f2TeY9m6gbgmaV-2">
          <mxGeometry x="300" width="100" height="40" as="geometry">
            <mxRectangle width="100" height="40" as="alternateBounds" />
          </mxGeometry>
        </mxCell>
        <mxCell id="-_hjf6f2TeY9m6gbgmaV-6" value="" style="shape=tableRow;horizontal=0;startSize=0;swimlaneHead=0;swimlaneBody=0;strokeColor=inherit;top=0;left=0;bottom=0;right=0;collapsible=0;dropTarget=0;fillColor=none;points=[[0,0.5],[1,0.5]];portConstraint=eastwest;fontSize=16;" vertex="1" parent="-_hjf6f2TeY9m6gbgmaV-1">
          <mxGeometry y="70" width="400" height="40" as="geometry" />
        </mxCell>
        <mxCell id="-_hjf6f2TeY9m6gbgmaV-7" value="" style="shape=partialRectangle;html=1;whiteSpace=wrap;connectable=0;strokeColor=inherit;overflow=hidden;fillColor=none;top=0;left=0;bottom=0;right=0;pointerEvents=1;fontSize=16;" vertex="1" parent="-_hjf6f2TeY9m6gbgmaV-6">
          <mxGeometry width="100" height="40" as="geometry">
            <mxRectangle width="100" height="40" as="alternateBounds" />
          </mxGeometry>
        </mxCell>
        <mxCell id="-_hjf6f2TeY9m6gbgmaV-8" value="" style="shape=partialRectangle;html=1;whiteSpace=wrap;connectable=0;strokeColor=inherit;overflow=hidden;fillColor=none;top=0;left=0;bottom=0;right=0;pointerEvents=1;fontSize=16;" vertex="1" parent="-_hjf6f2TeY9m6gbgmaV-6">
          <mxGeometry x="100" width="100" height="40" as="geometry">
            <mxRectangle width="100" height="40" as="alternateBounds" />
          </mxGeometry>
        </mxCell>
        <mxCell id="-_hjf6f2TeY9m6gbgmaV-9" value="" style="shape=partialRectangle;html=1;whiteSpace=wrap;connectable=0;strokeColor=inherit;overflow=hidden;fillColor=none;top=0;left=0;bottom=0;right=0;pointerEvents=1;fontSize=16;" vertex="1" parent="-_hjf6f2TeY9m6gbgmaV-6">
          <mxGeometry x="200" width="100" height="40" as="geometry">
            <mxRectangle width="100" height="40" as="alternateBounds" />
          </mxGeometry>
        </mxCell>
        <mxCell id="-_hjf6f2TeY9m6gbgmaV-15" style="shape=partialRectangle;html=1;whiteSpace=wrap;connectable=0;strokeColor=inherit;overflow=hidden;fillColor=none;top=0;left=0;bottom=0;right=0;pointerEvents=1;fontSize=16;" vertex="1" parent="-_hjf6f2TeY9m6gbgmaV-6">
          <mxGeometry x="300" width="100" height="40" as="geometry">
            <mxRectangle width="100" height="40" as="alternateBounds" />
          </mxGeometry>
        </mxCell>
        <mxCell id="-_hjf6f2TeY9m6gbgmaV-10" value="" style="shape=tableRow;horizontal=0;startSize=0;swimlaneHead=0;swimlaneBody=0;strokeColor=inherit;top=0;left=0;bottom=0;right=0;collapsible=0;dropTarget=0;fillColor=none;points=[[0,0.5],[1,0.5]];portConstraint=eastwest;fontSize=16;" vertex="1" parent="-_hjf6f2TeY9m6gbgmaV-1">
          <mxGeometry y="110" width="400" height="40" as="geometry" />
        </mxCell>
        <mxCell id="-_hjf6f2TeY9m6gbgmaV-11" value="" style="shape=partialRectangle;html=1;whiteSpace=wrap;connectable=0;strokeColor=inherit;overflow=hidden;fillColor=none;top=0;left=0;bottom=0;right=0;pointerEvents=1;fontSize=16;" vertex="1" parent="-_hjf6f2TeY9m6gbgmaV-10">
          <mxGeometry width="100" height="40" as="geometry">
            <mxRectangle width="100" height="40" as="alternateBounds" />
          </mxGeometry>
        </mxCell>
        <mxCell id="-_hjf6f2TeY9m6gbgmaV-12" value="" style="shape=partialRectangle;html=1;whiteSpace=wrap;connectable=0;strokeColor=inherit;overflow=hidden;fillColor=none;top=0;left=0;bottom=0;right=0;pointerEvents=1;fontSize=16;" vertex="1" parent="-_hjf6f2TeY9m6gbgmaV-10">
          <mxGeometry x="100" width="100" height="40" as="geometry">
            <mxRectangle width="100" height="40" as="alternateBounds" />
          </mxGeometry>
        </mxCell>
        <mxCell id="-_hjf6f2TeY9m6gbgmaV-13" value="" style="shape=partialRectangle;html=1;whiteSpace=wrap;connectable=0;strokeColor=inherit;overflow=hidden;fillColor=none;top=0;left=0;bottom=0;right=0;pointerEvents=1;fontSize=16;" vertex="1" parent="-_hjf6f2TeY9m6gbgmaV-10">
          <mxGeometry x="200" width="100" height="40" as="geometry">
            <mxRectangle width="100" height="40" as="alternateBounds" />
          </mxGeometry>
        </mxCell>
        <mxCell id="-_hjf6f2TeY9m6gbgmaV-16" style="shape=partialRectangle;html=1;whiteSpace=wrap;connectable=0;strokeColor=inherit;overflow=hidden;fillColor=none;top=0;left=0;bottom=0;right=0;pointerEvents=1;fontSize=16;" vertex="1" parent="-_hjf6f2TeY9m6gbgmaV-10">
          <mxGeometry x="300" width="100" height="40" as="geometry">
            <mxRectangle width="100" height="40" as="alternateBounds" />
          </mxGeometry>
        </mxCell>
        <mxCell id="-_hjf6f2TeY9m6gbgmaV-17" value="Profesor" style="shape=table;startSize=30;container=1;collapsible=0;childLayout=tableLayout;strokeColor=default;fontSize=16;" vertex="1" parent="1">
          <mxGeometry x="3130" y="430" width="405" height="150" as="geometry" />
        </mxCell>
        <mxCell id="-_hjf6f2TeY9m6gbgmaV-18" value="" style="shape=tableRow;horizontal=0;startSize=0;swimlaneHead=0;swimlaneBody=0;strokeColor=inherit;top=0;left=0;bottom=0;right=0;collapsible=0;dropTarget=0;fillColor=none;points=[[0,0.5],[1,0.5]];portConstraint=eastwest;fontSize=16;" vertex="1" parent="-_hjf6f2TeY9m6gbgmaV-17">
          <mxGeometry y="30" width="405" height="40" as="geometry" />
        </mxCell>
        <mxCell id="-_hjf6f2TeY9m6gbgmaV-203" value="fk_persona_id" style="shape=partialRectangle;html=1;whiteSpace=wrap;connectable=0;strokeColor=inherit;overflow=hidden;fillColor=none;top=0;left=0;bottom=0;right=0;pointerEvents=1;fontSize=16;" vertex="1" parent="-_hjf6f2TeY9m6gbgmaV-18">
          <mxGeometry width="135" height="40" as="geometry">
            <mxRectangle width="135" height="40" as="alternateBounds" />
          </mxGeometry>
        </mxCell>
        <mxCell id="-_hjf6f2TeY9m6gbgmaV-19" value="añosExperiencia" style="shape=partialRectangle;html=1;whiteSpace=wrap;connectable=0;strokeColor=inherit;overflow=hidden;fillColor=none;top=0;left=0;bottom=0;right=0;pointerEvents=1;fontSize=16;" vertex="1" parent="-_hjf6f2TeY9m6gbgmaV-18">
          <mxGeometry x="135" width="135" height="40" as="geometry">
            <mxRectangle width="135" height="40" as="alternateBounds" />
          </mxGeometry>
        </mxCell>
        <mxCell id="-_hjf6f2TeY9m6gbgmaV-20" value="pk_id" style="shape=partialRectangle;html=1;whiteSpace=wrap;connectable=0;strokeColor=inherit;overflow=hidden;fillColor=none;top=0;left=0;bottom=0;right=0;pointerEvents=1;fontSize=16;" vertex="1" parent="-_hjf6f2TeY9m6gbgmaV-18">
          <mxGeometry x="270" width="135" height="40" as="geometry">
            <mxRectangle width="135" height="40" as="alternateBounds" />
          </mxGeometry>
        </mxCell>
        <mxCell id="-_hjf6f2TeY9m6gbgmaV-22" value="" style="shape=tableRow;horizontal=0;startSize=0;swimlaneHead=0;swimlaneBody=0;strokeColor=inherit;top=0;left=0;bottom=0;right=0;collapsible=0;dropTarget=0;fillColor=none;points=[[0,0.5],[1,0.5]];portConstraint=eastwest;fontSize=16;" vertex="1" parent="-_hjf6f2TeY9m6gbgmaV-17">
          <mxGeometry y="70" width="405" height="40" as="geometry" />
        </mxCell>
        <mxCell id="-_hjf6f2TeY9m6gbgmaV-204" style="shape=partialRectangle;html=1;whiteSpace=wrap;connectable=0;strokeColor=inherit;overflow=hidden;fillColor=none;top=0;left=0;bottom=0;right=0;pointerEvents=1;fontSize=16;" vertex="1" parent="-_hjf6f2TeY9m6gbgmaV-22">
          <mxGeometry width="135" height="40" as="geometry">
            <mxRectangle width="135" height="40" as="alternateBounds" />
          </mxGeometry>
        </mxCell>
        <mxCell id="-_hjf6f2TeY9m6gbgmaV-23" value="" style="shape=partialRectangle;html=1;whiteSpace=wrap;connectable=0;strokeColor=inherit;overflow=hidden;fillColor=none;top=0;left=0;bottom=0;right=0;pointerEvents=1;fontSize=16;" vertex="1" parent="-_hjf6f2TeY9m6gbgmaV-22">
          <mxGeometry x="135" width="135" height="40" as="geometry">
            <mxRectangle width="135" height="40" as="alternateBounds" />
          </mxGeometry>
        </mxCell>
        <mxCell id="-_hjf6f2TeY9m6gbgmaV-24" value="" style="shape=partialRectangle;html=1;whiteSpace=wrap;connectable=0;strokeColor=inherit;overflow=hidden;fillColor=none;top=0;left=0;bottom=0;right=0;pointerEvents=1;fontSize=16;" vertex="1" parent="-_hjf6f2TeY9m6gbgmaV-22">
          <mxGeometry x="270" width="135" height="40" as="geometry">
            <mxRectangle width="135" height="40" as="alternateBounds" />
          </mxGeometry>
        </mxCell>
        <mxCell id="-_hjf6f2TeY9m6gbgmaV-26" value="" style="shape=tableRow;horizontal=0;startSize=0;swimlaneHead=0;swimlaneBody=0;strokeColor=inherit;top=0;left=0;bottom=0;right=0;collapsible=0;dropTarget=0;fillColor=none;points=[[0,0.5],[1,0.5]];portConstraint=eastwest;fontSize=16;" vertex="1" parent="-_hjf6f2TeY9m6gbgmaV-17">
          <mxGeometry y="110" width="405" height="40" as="geometry" />
        </mxCell>
        <mxCell id="-_hjf6f2TeY9m6gbgmaV-205" style="shape=partialRectangle;html=1;whiteSpace=wrap;connectable=0;strokeColor=inherit;overflow=hidden;fillColor=none;top=0;left=0;bottom=0;right=0;pointerEvents=1;fontSize=16;" vertex="1" parent="-_hjf6f2TeY9m6gbgmaV-26">
          <mxGeometry width="135" height="40" as="geometry">
            <mxRectangle width="135" height="40" as="alternateBounds" />
          </mxGeometry>
        </mxCell>
        <mxCell id="-_hjf6f2TeY9m6gbgmaV-27" value="" style="shape=partialRectangle;html=1;whiteSpace=wrap;connectable=0;strokeColor=inherit;overflow=hidden;fillColor=none;top=0;left=0;bottom=0;right=0;pointerEvents=1;fontSize=16;" vertex="1" parent="-_hjf6f2TeY9m6gbgmaV-26">
          <mxGeometry x="135" width="135" height="40" as="geometry">
            <mxRectangle width="135" height="40" as="alternateBounds" />
          </mxGeometry>
        </mxCell>
        <mxCell id="-_hjf6f2TeY9m6gbgmaV-28" value="" style="shape=partialRectangle;html=1;whiteSpace=wrap;connectable=0;strokeColor=inherit;overflow=hidden;fillColor=none;top=0;left=0;bottom=0;right=0;pointerEvents=1;fontSize=16;" vertex="1" parent="-_hjf6f2TeY9m6gbgmaV-26">
          <mxGeometry x="270" width="135" height="40" as="geometry">
            <mxRectangle width="135" height="40" as="alternateBounds" />
          </mxGeometry>
        </mxCell>
        <mxCell id="-_hjf6f2TeY9m6gbgmaV-30" value="Alumno" style="shape=table;startSize=30;container=1;collapsible=0;childLayout=tableLayout;strokeColor=default;fontSize=16;" vertex="1" parent="1">
          <mxGeometry x="2131" y="350" width="405" height="150" as="geometry" />
        </mxCell>
        <mxCell id="-_hjf6f2TeY9m6gbgmaV-31" value="" style="shape=tableRow;horizontal=0;startSize=0;swimlaneHead=0;swimlaneBody=0;strokeColor=inherit;top=0;left=0;bottom=0;right=0;collapsible=0;dropTarget=0;fillColor=none;points=[[0,0.5],[1,0.5]];portConstraint=eastwest;fontSize=16;" vertex="1" parent="-_hjf6f2TeY9m6gbgmaV-30">
          <mxGeometry y="30" width="405" height="40" as="geometry" />
        </mxCell>
        <mxCell id="-_hjf6f2TeY9m6gbgmaV-32" value="fk_persona_id&amp;nbsp;" style="shape=partialRectangle;html=1;whiteSpace=wrap;connectable=0;strokeColor=inherit;overflow=hidden;fillColor=none;top=0;left=0;bottom=0;right=0;pointerEvents=1;fontSize=16;" vertex="1" parent="-_hjf6f2TeY9m6gbgmaV-31">
          <mxGeometry width="135" height="40" as="geometry">
            <mxRectangle width="135" height="40" as="alternateBounds" />
          </mxGeometry>
        </mxCell>
        <mxCell id="-_hjf6f2TeY9m6gbgmaV-33" value="fechaNacimiento" style="shape=partialRectangle;html=1;whiteSpace=wrap;connectable=0;strokeColor=inherit;overflow=hidden;fillColor=none;top=0;left=0;bottom=0;right=0;pointerEvents=1;fontSize=16;" vertex="1" parent="-_hjf6f2TeY9m6gbgmaV-31">
          <mxGeometry x="135" width="135" height="40" as="geometry">
            <mxRectangle width="135" height="40" as="alternateBounds" />
          </mxGeometry>
        </mxCell>
        <mxCell id="-_hjf6f2TeY9m6gbgmaV-200" value="pk_id" style="shape=partialRectangle;html=1;whiteSpace=wrap;connectable=0;strokeColor=inherit;overflow=hidden;fillColor=none;top=0;left=0;bottom=0;right=0;pointerEvents=1;fontSize=16;" vertex="1" parent="-_hjf6f2TeY9m6gbgmaV-31">
          <mxGeometry x="270" width="135" height="40" as="geometry">
            <mxRectangle width="135" height="40" as="alternateBounds" />
          </mxGeometry>
        </mxCell>
        <mxCell id="-_hjf6f2TeY9m6gbgmaV-34" value="" style="shape=tableRow;horizontal=0;startSize=0;swimlaneHead=0;swimlaneBody=0;strokeColor=inherit;top=0;left=0;bottom=0;right=0;collapsible=0;dropTarget=0;fillColor=none;points=[[0,0.5],[1,0.5]];portConstraint=eastwest;fontSize=16;" vertex="1" parent="-_hjf6f2TeY9m6gbgmaV-30">
          <mxGeometry y="70" width="405" height="40" as="geometry" />
        </mxCell>
        <mxCell id="-_hjf6f2TeY9m6gbgmaV-35" value="" style="shape=partialRectangle;html=1;whiteSpace=wrap;connectable=0;strokeColor=inherit;overflow=hidden;fillColor=none;top=0;left=0;bottom=0;right=0;pointerEvents=1;fontSize=16;" vertex="1" parent="-_hjf6f2TeY9m6gbgmaV-34">
          <mxGeometry width="135" height="40" as="geometry">
            <mxRectangle width="135" height="40" as="alternateBounds" />
          </mxGeometry>
        </mxCell>
        <mxCell id="-_hjf6f2TeY9m6gbgmaV-36" value="" style="shape=partialRectangle;html=1;whiteSpace=wrap;connectable=0;strokeColor=inherit;overflow=hidden;fillColor=none;top=0;left=0;bottom=0;right=0;pointerEvents=1;fontSize=16;" vertex="1" parent="-_hjf6f2TeY9m6gbgmaV-34">
          <mxGeometry x="135" width="135" height="40" as="geometry">
            <mxRectangle width="135" height="40" as="alternateBounds" />
          </mxGeometry>
        </mxCell>
        <mxCell id="-_hjf6f2TeY9m6gbgmaV-201" style="shape=partialRectangle;html=1;whiteSpace=wrap;connectable=0;strokeColor=inherit;overflow=hidden;fillColor=none;top=0;left=0;bottom=0;right=0;pointerEvents=1;fontSize=16;" vertex="1" parent="-_hjf6f2TeY9m6gbgmaV-34">
          <mxGeometry x="270" width="135" height="40" as="geometry">
            <mxRectangle width="135" height="40" as="alternateBounds" />
          </mxGeometry>
        </mxCell>
        <mxCell id="-_hjf6f2TeY9m6gbgmaV-37" value="" style="shape=tableRow;horizontal=0;startSize=0;swimlaneHead=0;swimlaneBody=0;strokeColor=inherit;top=0;left=0;bottom=0;right=0;collapsible=0;dropTarget=0;fillColor=none;points=[[0,0.5],[1,0.5]];portConstraint=eastwest;fontSize=16;" vertex="1" parent="-_hjf6f2TeY9m6gbgmaV-30">
          <mxGeometry y="110" width="405" height="40" as="geometry" />
        </mxCell>
        <mxCell id="-_hjf6f2TeY9m6gbgmaV-38" value="" style="shape=partialRectangle;html=1;whiteSpace=wrap;connectable=0;strokeColor=inherit;overflow=hidden;fillColor=none;top=0;left=0;bottom=0;right=0;pointerEvents=1;fontSize=16;" vertex="1" parent="-_hjf6f2TeY9m6gbgmaV-37">
          <mxGeometry width="135" height="40" as="geometry">
            <mxRectangle width="135" height="40" as="alternateBounds" />
          </mxGeometry>
        </mxCell>
        <mxCell id="-_hjf6f2TeY9m6gbgmaV-39" value="" style="shape=partialRectangle;html=1;whiteSpace=wrap;connectable=0;strokeColor=inherit;overflow=hidden;fillColor=none;top=0;left=0;bottom=0;right=0;pointerEvents=1;fontSize=16;" vertex="1" parent="-_hjf6f2TeY9m6gbgmaV-37">
          <mxGeometry x="135" width="135" height="40" as="geometry">
            <mxRectangle width="135" height="40" as="alternateBounds" />
          </mxGeometry>
        </mxCell>
        <mxCell id="-_hjf6f2TeY9m6gbgmaV-202" style="shape=partialRectangle;html=1;whiteSpace=wrap;connectable=0;strokeColor=inherit;overflow=hidden;fillColor=none;top=0;left=0;bottom=0;right=0;pointerEvents=1;fontSize=16;" vertex="1" parent="-_hjf6f2TeY9m6gbgmaV-37">
          <mxGeometry x="270" width="135" height="40" as="geometry">
            <mxRectangle width="135" height="40" as="alternateBounds" />
          </mxGeometry>
        </mxCell>
        <mxCell id="-_hjf6f2TeY9m6gbgmaV-40" value="Administrativo" style="shape=table;startSize=30;container=1;collapsible=0;childLayout=tableLayout;strokeColor=default;fontSize=16;" vertex="1" parent="1">
          <mxGeometry x="1320" y="316.25" width="405" height="152.5" as="geometry" />
        </mxCell>
        <mxCell id="-_hjf6f2TeY9m6gbgmaV-41" value="" style="shape=tableRow;horizontal=0;startSize=0;swimlaneHead=0;swimlaneBody=0;strokeColor=inherit;top=0;left=0;bottom=0;right=0;collapsible=0;dropTarget=0;fillColor=none;points=[[0,0.5],[1,0.5]];portConstraint=eastwest;fontSize=16;" vertex="1" parent="-_hjf6f2TeY9m6gbgmaV-40">
          <mxGeometry y="30" width="405" height="43" as="geometry" />
        </mxCell>
        <mxCell id="-_hjf6f2TeY9m6gbgmaV-206" value="fk_persona_id" style="shape=partialRectangle;html=1;whiteSpace=wrap;connectable=0;strokeColor=inherit;overflow=hidden;fillColor=none;top=0;left=0;bottom=0;right=0;pointerEvents=1;fontSize=16;" vertex="1" parent="-_hjf6f2TeY9m6gbgmaV-41">
          <mxGeometry width="135" height="43" as="geometry">
            <mxRectangle width="135" height="43" as="alternateBounds" />
          </mxGeometry>
        </mxCell>
        <mxCell id="-_hjf6f2TeY9m6gbgmaV-42" value="sueldo" style="shape=partialRectangle;html=1;whiteSpace=wrap;connectable=0;strokeColor=inherit;overflow=hidden;fillColor=none;top=0;left=0;bottom=0;right=0;pointerEvents=1;fontSize=16;" vertex="1" parent="-_hjf6f2TeY9m6gbgmaV-41">
          <mxGeometry x="135" width="135" height="43" as="geometry">
            <mxRectangle width="135" height="43" as="alternateBounds" />
          </mxGeometry>
        </mxCell>
        <mxCell id="-_hjf6f2TeY9m6gbgmaV-43" value="pk_id" style="shape=partialRectangle;html=1;whiteSpace=wrap;connectable=0;strokeColor=inherit;overflow=hidden;fillColor=none;top=0;left=0;bottom=0;right=0;pointerEvents=1;fontSize=16;" vertex="1" parent="-_hjf6f2TeY9m6gbgmaV-41">
          <mxGeometry x="270" width="135" height="43" as="geometry">
            <mxRectangle width="135" height="43" as="alternateBounds" />
          </mxGeometry>
        </mxCell>
        <mxCell id="-_hjf6f2TeY9m6gbgmaV-44" value="" style="shape=tableRow;horizontal=0;startSize=0;swimlaneHead=0;swimlaneBody=0;strokeColor=inherit;top=0;left=0;bottom=0;right=0;collapsible=0;dropTarget=0;fillColor=none;points=[[0,0.5],[1,0.5]];portConstraint=eastwest;fontSize=16;" vertex="1" parent="-_hjf6f2TeY9m6gbgmaV-40">
          <mxGeometry y="73" width="405" height="40" as="geometry" />
        </mxCell>
        <mxCell id="-_hjf6f2TeY9m6gbgmaV-207" style="shape=partialRectangle;html=1;whiteSpace=wrap;connectable=0;strokeColor=inherit;overflow=hidden;fillColor=none;top=0;left=0;bottom=0;right=0;pointerEvents=1;fontSize=16;" vertex="1" parent="-_hjf6f2TeY9m6gbgmaV-44">
          <mxGeometry width="135" height="40" as="geometry">
            <mxRectangle width="135" height="40" as="alternateBounds" />
          </mxGeometry>
        </mxCell>
        <mxCell id="-_hjf6f2TeY9m6gbgmaV-45" value="" style="shape=partialRectangle;html=1;whiteSpace=wrap;connectable=0;strokeColor=inherit;overflow=hidden;fillColor=none;top=0;left=0;bottom=0;right=0;pointerEvents=1;fontSize=16;" vertex="1" parent="-_hjf6f2TeY9m6gbgmaV-44">
          <mxGeometry x="135" width="135" height="40" as="geometry">
            <mxRectangle width="135" height="40" as="alternateBounds" />
          </mxGeometry>
        </mxCell>
        <mxCell id="-_hjf6f2TeY9m6gbgmaV-46" value="" style="shape=partialRectangle;html=1;whiteSpace=wrap;connectable=0;strokeColor=inherit;overflow=hidden;fillColor=none;top=0;left=0;bottom=0;right=0;pointerEvents=1;fontSize=16;" vertex="1" parent="-_hjf6f2TeY9m6gbgmaV-44">
          <mxGeometry x="270" width="135" height="40" as="geometry">
            <mxRectangle width="135" height="40" as="alternateBounds" />
          </mxGeometry>
        </mxCell>
        <mxCell id="-_hjf6f2TeY9m6gbgmaV-47" value="" style="shape=tableRow;horizontal=0;startSize=0;swimlaneHead=0;swimlaneBody=0;strokeColor=inherit;top=0;left=0;bottom=0;right=0;collapsible=0;dropTarget=0;fillColor=none;points=[[0,0.5],[1,0.5]];portConstraint=eastwest;fontSize=16;" vertex="1" parent="-_hjf6f2TeY9m6gbgmaV-40">
          <mxGeometry y="113" width="405" height="40" as="geometry" />
        </mxCell>
        <mxCell id="-_hjf6f2TeY9m6gbgmaV-208" style="shape=partialRectangle;html=1;whiteSpace=wrap;connectable=0;strokeColor=inherit;overflow=hidden;fillColor=none;top=0;left=0;bottom=0;right=0;pointerEvents=1;fontSize=16;" vertex="1" parent="-_hjf6f2TeY9m6gbgmaV-47">
          <mxGeometry width="135" height="40" as="geometry">
            <mxRectangle width="135" height="40" as="alternateBounds" />
          </mxGeometry>
        </mxCell>
        <mxCell id="-_hjf6f2TeY9m6gbgmaV-48" value="" style="shape=partialRectangle;html=1;whiteSpace=wrap;connectable=0;strokeColor=inherit;overflow=hidden;fillColor=none;top=0;left=0;bottom=0;right=0;pointerEvents=1;fontSize=16;" vertex="1" parent="-_hjf6f2TeY9m6gbgmaV-47">
          <mxGeometry x="135" width="135" height="40" as="geometry">
            <mxRectangle width="135" height="40" as="alternateBounds" />
          </mxGeometry>
        </mxCell>
        <mxCell id="-_hjf6f2TeY9m6gbgmaV-49" value="" style="shape=partialRectangle;html=1;whiteSpace=wrap;connectable=0;strokeColor=inherit;overflow=hidden;fillColor=none;top=0;left=0;bottom=0;right=0;pointerEvents=1;fontSize=16;" vertex="1" parent="-_hjf6f2TeY9m6gbgmaV-47">
          <mxGeometry x="270" width="135" height="40" as="geometry">
            <mxRectangle width="135" height="40" as="alternateBounds" />
          </mxGeometry>
        </mxCell>
        <mxCell id="-_hjf6f2TeY9m6gbgmaV-50" value="sueldo" style="ellipse;whiteSpace=wrap;html=1;" vertex="1" parent="1">
          <mxGeometry x="-470" y="370" width="80" height="45" as="geometry" />
        </mxCell>
        <mxCell id="-_hjf6f2TeY9m6gbgmaV-51" value="" style="endArrow=none;html=1;rounded=0;entryX=0;entryY=0.5;entryDx=0;entryDy=0;exitX=1;exitY=0.5;exitDx=0;exitDy=0;" edge="1" parent="1" source="-_hjf6f2TeY9m6gbgmaV-50" target="80IqMO9L08kLf_JqDXmp-7">
          <mxGeometry width="50" height="50" relative="1" as="geometry">
            <mxPoint x="-420" y="480" as="sourcePoint" />
            <mxPoint x="-370" y="430" as="targetPoint" />
          </mxGeometry>
        </mxCell>
        <mxCell id="-_hjf6f2TeY9m6gbgmaV-52" value="solucionCorrecta" style="ellipse;whiteSpace=wrap;html=1;" vertex="1" parent="1">
          <mxGeometry x="260" y="1080" width="110" height="60" as="geometry" />
        </mxCell>
        <mxCell id="-_hjf6f2TeY9m6gbgmaV-53" value="" style="endArrow=none;html=1;rounded=0;exitX=1;exitY=0.5;exitDx=0;exitDy=0;entryX=0;entryY=0.5;entryDx=0;entryDy=0;" edge="1" parent="1" source="80IqMO9L08kLf_JqDXmp-96" target="-_hjf6f2TeY9m6gbgmaV-52">
          <mxGeometry width="50" height="50" relative="1" as="geometry">
            <mxPoint x="230" y="1060" as="sourcePoint" />
            <mxPoint x="280" y="1010" as="targetPoint" />
          </mxGeometry>
        </mxCell>
        <mxCell id="-_hjf6f2TeY9m6gbgmaV-54" value="1:N" style="text;html=1;align=center;verticalAlign=middle;whiteSpace=wrap;rounded=0;" vertex="1" parent="1">
          <mxGeometry x="110" y="1060" width="60" height="30" as="geometry" />
        </mxCell>
        <mxCell id="-_hjf6f2TeY9m6gbgmaV-55" value="1:N" style="text;html=1;align=center;verticalAlign=middle;whiteSpace=wrap;rounded=0;" vertex="1" parent="1">
          <mxGeometry x="110" y="820" width="60" height="30" as="geometry" />
        </mxCell>
        <mxCell id="-_hjf6f2TeY9m6gbgmaV-56" value="N:M" style="text;html=1;align=center;verticalAlign=middle;whiteSpace=wrap;rounded=0;" vertex="1" parent="1">
          <mxGeometry x="150" y="950" width="60" height="30" as="geometry" />
        </mxCell>
        <mxCell id="-_hjf6f2TeY9m6gbgmaV-57" value="Clase" style="shape=table;startSize=30;container=1;collapsible=0;childLayout=tableLayout;strokeColor=default;fontSize=16;" vertex="1" parent="1">
          <mxGeometry x="3037" y="990" width="562" height="150" as="geometry" />
        </mxCell>
        <mxCell id="-_hjf6f2TeY9m6gbgmaV-58" value="" style="shape=tableRow;horizontal=0;startSize=0;swimlaneHead=0;swimlaneBody=0;strokeColor=inherit;top=0;left=0;bottom=0;right=0;collapsible=0;dropTarget=0;fillColor=none;points=[[0,0.5],[1,0.5]];portConstraint=eastwest;fontSize=16;" vertex="1" parent="-_hjf6f2TeY9m6gbgmaV-57">
          <mxGeometry y="30" width="562" height="40" as="geometry" />
        </mxCell>
        <mxCell id="-_hjf6f2TeY9m6gbgmaV-59" value="fk_id_profesor" style="shape=partialRectangle;html=1;whiteSpace=wrap;connectable=0;strokeColor=inherit;overflow=hidden;fillColor=none;top=0;left=0;bottom=0;right=0;pointerEvents=1;fontSize=16;" vertex="1" parent="-_hjf6f2TeY9m6gbgmaV-58">
          <mxGeometry width="141" height="40" as="geometry">
            <mxRectangle width="141" height="40" as="alternateBounds" />
          </mxGeometry>
        </mxCell>
        <mxCell id="-_hjf6f2TeY9m6gbgmaV-60" value="pk_id" style="shape=partialRectangle;html=1;whiteSpace=wrap;connectable=0;strokeColor=inherit;overflow=hidden;fillColor=none;top=0;left=0;bottom=0;right=0;pointerEvents=1;fontSize=16;" vertex="1" parent="-_hjf6f2TeY9m6gbgmaV-58">
          <mxGeometry x="141" width="139" height="40" as="geometry">
            <mxRectangle width="139" height="40" as="alternateBounds" />
          </mxGeometry>
        </mxCell>
        <mxCell id="-_hjf6f2TeY9m6gbgmaV-69" value="fecha" style="shape=partialRectangle;html=1;whiteSpace=wrap;connectable=0;strokeColor=inherit;overflow=hidden;fillColor=none;top=0;left=0;bottom=0;right=0;pointerEvents=1;fontSize=16;" vertex="1" parent="-_hjf6f2TeY9m6gbgmaV-58">
          <mxGeometry x="280" width="141" height="40" as="geometry">
            <mxRectangle width="141" height="40" as="alternateBounds" />
          </mxGeometry>
        </mxCell>
        <mxCell id="-_hjf6f2TeY9m6gbgmaV-72" value="fk_id_alumno" style="shape=partialRectangle;html=1;whiteSpace=wrap;connectable=0;strokeColor=inherit;overflow=hidden;fillColor=none;top=0;left=0;bottom=0;right=0;pointerEvents=1;fontSize=16;" vertex="1" parent="-_hjf6f2TeY9m6gbgmaV-58">
          <mxGeometry x="421" width="141" height="40" as="geometry">
            <mxRectangle width="141" height="40" as="alternateBounds" />
          </mxGeometry>
        </mxCell>
        <mxCell id="-_hjf6f2TeY9m6gbgmaV-61" value="" style="shape=tableRow;horizontal=0;startSize=0;swimlaneHead=0;swimlaneBody=0;strokeColor=inherit;top=0;left=0;bottom=0;right=0;collapsible=0;dropTarget=0;fillColor=none;points=[[0,0.5],[1,0.5]];portConstraint=eastwest;fontSize=16;" vertex="1" parent="-_hjf6f2TeY9m6gbgmaV-57">
          <mxGeometry y="70" width="562" height="40" as="geometry" />
        </mxCell>
        <mxCell id="-_hjf6f2TeY9m6gbgmaV-62" value="" style="shape=partialRectangle;html=1;whiteSpace=wrap;connectable=0;strokeColor=inherit;overflow=hidden;fillColor=none;top=0;left=0;bottom=0;right=0;pointerEvents=1;fontSize=16;" vertex="1" parent="-_hjf6f2TeY9m6gbgmaV-61">
          <mxGeometry width="141" height="40" as="geometry">
            <mxRectangle width="141" height="40" as="alternateBounds" />
          </mxGeometry>
        </mxCell>
        <mxCell id="-_hjf6f2TeY9m6gbgmaV-63" value="" style="shape=partialRectangle;html=1;whiteSpace=wrap;connectable=0;strokeColor=inherit;overflow=hidden;fillColor=none;top=0;left=0;bottom=0;right=0;pointerEvents=1;fontSize=16;" vertex="1" parent="-_hjf6f2TeY9m6gbgmaV-61">
          <mxGeometry x="141" width="139" height="40" as="geometry">
            <mxRectangle width="139" height="40" as="alternateBounds" />
          </mxGeometry>
        </mxCell>
        <mxCell id="-_hjf6f2TeY9m6gbgmaV-70" style="shape=partialRectangle;html=1;whiteSpace=wrap;connectable=0;strokeColor=inherit;overflow=hidden;fillColor=none;top=0;left=0;bottom=0;right=0;pointerEvents=1;fontSize=16;" vertex="1" parent="-_hjf6f2TeY9m6gbgmaV-61">
          <mxGeometry x="280" width="141" height="40" as="geometry">
            <mxRectangle width="141" height="40" as="alternateBounds" />
          </mxGeometry>
        </mxCell>
        <mxCell id="-_hjf6f2TeY9m6gbgmaV-73" style="shape=partialRectangle;html=1;whiteSpace=wrap;connectable=0;strokeColor=inherit;overflow=hidden;fillColor=none;top=0;left=0;bottom=0;right=0;pointerEvents=1;fontSize=16;" vertex="1" parent="-_hjf6f2TeY9m6gbgmaV-61">
          <mxGeometry x="421" width="141" height="40" as="geometry">
            <mxRectangle width="141" height="40" as="alternateBounds" />
          </mxGeometry>
        </mxCell>
        <mxCell id="-_hjf6f2TeY9m6gbgmaV-64" value="" style="shape=tableRow;horizontal=0;startSize=0;swimlaneHead=0;swimlaneBody=0;strokeColor=inherit;top=0;left=0;bottom=0;right=0;collapsible=0;dropTarget=0;fillColor=none;points=[[0,0.5],[1,0.5]];portConstraint=eastwest;fontSize=16;" vertex="1" parent="-_hjf6f2TeY9m6gbgmaV-57">
          <mxGeometry y="110" width="562" height="40" as="geometry" />
        </mxCell>
        <mxCell id="-_hjf6f2TeY9m6gbgmaV-65" value="" style="shape=partialRectangle;html=1;whiteSpace=wrap;connectable=0;strokeColor=inherit;overflow=hidden;fillColor=none;top=0;left=0;bottom=0;right=0;pointerEvents=1;fontSize=16;" vertex="1" parent="-_hjf6f2TeY9m6gbgmaV-64">
          <mxGeometry width="141" height="40" as="geometry">
            <mxRectangle width="141" height="40" as="alternateBounds" />
          </mxGeometry>
        </mxCell>
        <mxCell id="-_hjf6f2TeY9m6gbgmaV-66" value="" style="shape=partialRectangle;html=1;whiteSpace=wrap;connectable=0;strokeColor=inherit;overflow=hidden;fillColor=none;top=0;left=0;bottom=0;right=0;pointerEvents=1;fontSize=16;" vertex="1" parent="-_hjf6f2TeY9m6gbgmaV-64">
          <mxGeometry x="141" width="139" height="40" as="geometry">
            <mxRectangle width="139" height="40" as="alternateBounds" />
          </mxGeometry>
        </mxCell>
        <mxCell id="-_hjf6f2TeY9m6gbgmaV-71" style="shape=partialRectangle;html=1;whiteSpace=wrap;connectable=0;strokeColor=inherit;overflow=hidden;fillColor=none;top=0;left=0;bottom=0;right=0;pointerEvents=1;fontSize=16;" vertex="1" parent="-_hjf6f2TeY9m6gbgmaV-64">
          <mxGeometry x="280" width="141" height="40" as="geometry">
            <mxRectangle width="141" height="40" as="alternateBounds" />
          </mxGeometry>
        </mxCell>
        <mxCell id="-_hjf6f2TeY9m6gbgmaV-74" style="shape=partialRectangle;html=1;whiteSpace=wrap;connectable=0;strokeColor=inherit;overflow=hidden;fillColor=none;top=0;left=0;bottom=0;right=0;pointerEvents=1;fontSize=16;" vertex="1" parent="-_hjf6f2TeY9m6gbgmaV-64">
          <mxGeometry x="421" width="141" height="40" as="geometry">
            <mxRectangle width="141" height="40" as="alternateBounds" />
          </mxGeometry>
        </mxCell>
        <mxCell id="-_hjf6f2TeY9m6gbgmaV-67" value="pk_id" style="ellipse;whiteSpace=wrap;html=1;" vertex="1" parent="1">
          <mxGeometry x="-160" y="1100" width="90" height="60" as="geometry" />
        </mxCell>
        <mxCell id="-_hjf6f2TeY9m6gbgmaV-68" value="" style="endArrow=none;html=1;rounded=0;exitX=1;exitY=0.5;exitDx=0;exitDy=0;entryX=0;entryY=0.75;entryDx=0;entryDy=0;" edge="1" parent="1" source="-_hjf6f2TeY9m6gbgmaV-67" target="80IqMO9L08kLf_JqDXmp-96">
          <mxGeometry width="50" height="50" relative="1" as="geometry">
            <mxPoint x="-50" y="1190" as="sourcePoint" />
            <mxPoint y="1140" as="targetPoint" />
          </mxGeometry>
        </mxCell>
        <mxCell id="-_hjf6f2TeY9m6gbgmaV-75" value="" style="endArrow=none;html=1;rounded=0;entryX=0;entryY=0.5;entryDx=0;entryDy=0;exitX=1;exitY=0;exitDx=0;exitDy=0;" edge="1" parent="1" source="80IqMO9L08kLf_JqDXmp-3" target="80IqMO9L08kLf_JqDXmp-48">
          <mxGeometry width="50" height="50" relative="1" as="geometry">
            <mxPoint x="520" y="490" as="sourcePoint" />
            <mxPoint x="570" y="440" as="targetPoint" />
          </mxGeometry>
        </mxCell>
        <mxCell id="-_hjf6f2TeY9m6gbgmaV-76" value="1:1" style="text;html=1;align=center;verticalAlign=middle;whiteSpace=wrap;rounded=0;" vertex="1" parent="1">
          <mxGeometry x="180" y="330" width="60" height="30" as="geometry" />
        </mxCell>
        <mxCell id="-_hjf6f2TeY9m6gbgmaV-77" value="Examen" style="shape=table;startSize=30;container=1;collapsible=0;childLayout=tableLayout;strokeColor=default;fontSize=16;" vertex="1" parent="1">
          <mxGeometry x="2920" y="1330" width="562" height="150" as="geometry" />
        </mxCell>
        <mxCell id="-_hjf6f2TeY9m6gbgmaV-78" value="" style="shape=tableRow;horizontal=0;startSize=0;swimlaneHead=0;swimlaneBody=0;strokeColor=inherit;top=0;left=0;bottom=0;right=0;collapsible=0;dropTarget=0;fillColor=none;points=[[0,0.5],[1,0.5]];portConstraint=eastwest;fontSize=16;" vertex="1" parent="-_hjf6f2TeY9m6gbgmaV-77">
          <mxGeometry y="30" width="562" height="40" as="geometry" />
        </mxCell>
        <mxCell id="-_hjf6f2TeY9m6gbgmaV-79" value="tipo" style="shape=partialRectangle;html=1;whiteSpace=wrap;connectable=0;strokeColor=inherit;overflow=hidden;fillColor=none;top=0;left=0;bottom=0;right=0;pointerEvents=1;fontSize=16;" vertex="1" parent="-_hjf6f2TeY9m6gbgmaV-78">
          <mxGeometry width="141" height="40" as="geometry">
            <mxRectangle width="141" height="40" as="alternateBounds" />
          </mxGeometry>
        </mxCell>
        <mxCell id="-_hjf6f2TeY9m6gbgmaV-80" value="pk_id" style="shape=partialRectangle;html=1;whiteSpace=wrap;connectable=0;strokeColor=inherit;overflow=hidden;fillColor=none;top=0;left=0;bottom=0;right=0;pointerEvents=1;fontSize=16;" vertex="1" parent="-_hjf6f2TeY9m6gbgmaV-78">
          <mxGeometry x="141" width="139" height="40" as="geometry">
            <mxRectangle width="139" height="40" as="alternateBounds" />
          </mxGeometry>
        </mxCell>
        <mxCell id="-_hjf6f2TeY9m6gbgmaV-81" value="fecha" style="shape=partialRectangle;html=1;whiteSpace=wrap;connectable=0;strokeColor=inherit;overflow=hidden;fillColor=none;top=0;left=0;bottom=0;right=0;pointerEvents=1;fontSize=16;" vertex="1" parent="-_hjf6f2TeY9m6gbgmaV-78">
          <mxGeometry x="280" width="141" height="40" as="geometry">
            <mxRectangle width="141" height="40" as="alternateBounds" />
          </mxGeometry>
        </mxCell>
        <mxCell id="-_hjf6f2TeY9m6gbgmaV-82" value="fk_id_alumno" style="shape=partialRectangle;html=1;whiteSpace=wrap;connectable=0;strokeColor=inherit;overflow=hidden;fillColor=none;top=0;left=0;bottom=0;right=0;pointerEvents=1;fontSize=16;" vertex="1" parent="-_hjf6f2TeY9m6gbgmaV-78">
          <mxGeometry x="421" width="141" height="40" as="geometry">
            <mxRectangle width="141" height="40" as="alternateBounds" />
          </mxGeometry>
        </mxCell>
        <mxCell id="-_hjf6f2TeY9m6gbgmaV-83" value="" style="shape=tableRow;horizontal=0;startSize=0;swimlaneHead=0;swimlaneBody=0;strokeColor=inherit;top=0;left=0;bottom=0;right=0;collapsible=0;dropTarget=0;fillColor=none;points=[[0,0.5],[1,0.5]];portConstraint=eastwest;fontSize=16;" vertex="1" parent="-_hjf6f2TeY9m6gbgmaV-77">
          <mxGeometry y="70" width="562" height="40" as="geometry" />
        </mxCell>
        <mxCell id="-_hjf6f2TeY9m6gbgmaV-84" value="" style="shape=partialRectangle;html=1;whiteSpace=wrap;connectable=0;strokeColor=inherit;overflow=hidden;fillColor=none;top=0;left=0;bottom=0;right=0;pointerEvents=1;fontSize=16;" vertex="1" parent="-_hjf6f2TeY9m6gbgmaV-83">
          <mxGeometry width="141" height="40" as="geometry">
            <mxRectangle width="141" height="40" as="alternateBounds" />
          </mxGeometry>
        </mxCell>
        <mxCell id="-_hjf6f2TeY9m6gbgmaV-85" value="" style="shape=partialRectangle;html=1;whiteSpace=wrap;connectable=0;strokeColor=inherit;overflow=hidden;fillColor=none;top=0;left=0;bottom=0;right=0;pointerEvents=1;fontSize=16;" vertex="1" parent="-_hjf6f2TeY9m6gbgmaV-83">
          <mxGeometry x="141" width="139" height="40" as="geometry">
            <mxRectangle width="139" height="40" as="alternateBounds" />
          </mxGeometry>
        </mxCell>
        <mxCell id="-_hjf6f2TeY9m6gbgmaV-86" style="shape=partialRectangle;html=1;whiteSpace=wrap;connectable=0;strokeColor=inherit;overflow=hidden;fillColor=none;top=0;left=0;bottom=0;right=0;pointerEvents=1;fontSize=16;" vertex="1" parent="-_hjf6f2TeY9m6gbgmaV-83">
          <mxGeometry x="280" width="141" height="40" as="geometry">
            <mxRectangle width="141" height="40" as="alternateBounds" />
          </mxGeometry>
        </mxCell>
        <mxCell id="-_hjf6f2TeY9m6gbgmaV-87" style="shape=partialRectangle;html=1;whiteSpace=wrap;connectable=0;strokeColor=inherit;overflow=hidden;fillColor=none;top=0;left=0;bottom=0;right=0;pointerEvents=1;fontSize=16;" vertex="1" parent="-_hjf6f2TeY9m6gbgmaV-83">
          <mxGeometry x="421" width="141" height="40" as="geometry">
            <mxRectangle width="141" height="40" as="alternateBounds" />
          </mxGeometry>
        </mxCell>
        <mxCell id="-_hjf6f2TeY9m6gbgmaV-88" value="" style="shape=tableRow;horizontal=0;startSize=0;swimlaneHead=0;swimlaneBody=0;strokeColor=inherit;top=0;left=0;bottom=0;right=0;collapsible=0;dropTarget=0;fillColor=none;points=[[0,0.5],[1,0.5]];portConstraint=eastwest;fontSize=16;" vertex="1" parent="-_hjf6f2TeY9m6gbgmaV-77">
          <mxGeometry y="110" width="562" height="40" as="geometry" />
        </mxCell>
        <mxCell id="-_hjf6f2TeY9m6gbgmaV-89" value="" style="shape=partialRectangle;html=1;whiteSpace=wrap;connectable=0;strokeColor=inherit;overflow=hidden;fillColor=none;top=0;left=0;bottom=0;right=0;pointerEvents=1;fontSize=16;" vertex="1" parent="-_hjf6f2TeY9m6gbgmaV-88">
          <mxGeometry width="141" height="40" as="geometry">
            <mxRectangle width="141" height="40" as="alternateBounds" />
          </mxGeometry>
        </mxCell>
        <mxCell id="-_hjf6f2TeY9m6gbgmaV-90" value="" style="shape=partialRectangle;html=1;whiteSpace=wrap;connectable=0;strokeColor=inherit;overflow=hidden;fillColor=none;top=0;left=0;bottom=0;right=0;pointerEvents=1;fontSize=16;" vertex="1" parent="-_hjf6f2TeY9m6gbgmaV-88">
          <mxGeometry x="141" width="139" height="40" as="geometry">
            <mxRectangle width="139" height="40" as="alternateBounds" />
          </mxGeometry>
        </mxCell>
        <mxCell id="-_hjf6f2TeY9m6gbgmaV-91" style="shape=partialRectangle;html=1;whiteSpace=wrap;connectable=0;strokeColor=inherit;overflow=hidden;fillColor=none;top=0;left=0;bottom=0;right=0;pointerEvents=1;fontSize=16;" vertex="1" parent="-_hjf6f2TeY9m6gbgmaV-88">
          <mxGeometry x="280" width="141" height="40" as="geometry">
            <mxRectangle width="141" height="40" as="alternateBounds" />
          </mxGeometry>
        </mxCell>
        <mxCell id="-_hjf6f2TeY9m6gbgmaV-92" style="shape=partialRectangle;html=1;whiteSpace=wrap;connectable=0;strokeColor=inherit;overflow=hidden;fillColor=none;top=0;left=0;bottom=0;right=0;pointerEvents=1;fontSize=16;" vertex="1" parent="-_hjf6f2TeY9m6gbgmaV-88">
          <mxGeometry x="421" width="141" height="40" as="geometry">
            <mxRectangle width="141" height="40" as="alternateBounds" />
          </mxGeometry>
        </mxCell>
        <mxCell id="-_hjf6f2TeY9m6gbgmaV-93" value="Test" style="shape=table;startSize=30;container=1;collapsible=0;childLayout=tableLayout;strokeColor=default;fontSize=16;" vertex="1" parent="1">
          <mxGeometry x="1770" y="1320" width="562" height="150" as="geometry" />
        </mxCell>
        <mxCell id="-_hjf6f2TeY9m6gbgmaV-94" value="" style="shape=tableRow;horizontal=0;startSize=0;swimlaneHead=0;swimlaneBody=0;strokeColor=inherit;top=0;left=0;bottom=0;right=0;collapsible=0;dropTarget=0;fillColor=none;points=[[0,0.5],[1,0.5]];portConstraint=eastwest;fontSize=16;" vertex="1" parent="-_hjf6f2TeY9m6gbgmaV-93">
          <mxGeometry y="30" width="562" height="40" as="geometry" />
        </mxCell>
        <mxCell id="-_hjf6f2TeY9m6gbgmaV-95" value="numTestRealizados" style="shape=partialRectangle;html=1;whiteSpace=wrap;connectable=0;strokeColor=inherit;overflow=hidden;fillColor=none;top=0;left=0;bottom=0;right=0;pointerEvents=1;fontSize=16;" vertex="1" parent="-_hjf6f2TeY9m6gbgmaV-94">
          <mxGeometry width="141" height="40" as="geometry">
            <mxRectangle width="141" height="40" as="alternateBounds" />
          </mxGeometry>
        </mxCell>
        <mxCell id="-_hjf6f2TeY9m6gbgmaV-96" value="pk_id" style="shape=partialRectangle;html=1;whiteSpace=wrap;connectable=0;strokeColor=inherit;overflow=hidden;fillColor=none;top=0;left=0;bottom=0;right=0;pointerEvents=1;fontSize=16;" vertex="1" parent="-_hjf6f2TeY9m6gbgmaV-94">
          <mxGeometry x="141" width="139" height="40" as="geometry">
            <mxRectangle width="139" height="40" as="alternateBounds" />
          </mxGeometry>
        </mxCell>
        <mxCell id="-_hjf6f2TeY9m6gbgmaV-97" value="%testAprobados" style="shape=partialRectangle;html=1;whiteSpace=wrap;connectable=0;strokeColor=inherit;overflow=hidden;fillColor=none;top=0;left=0;bottom=0;right=0;pointerEvents=1;fontSize=16;" vertex="1" parent="-_hjf6f2TeY9m6gbgmaV-94">
          <mxGeometry x="280" width="141" height="40" as="geometry">
            <mxRectangle width="141" height="40" as="alternateBounds" />
          </mxGeometry>
        </mxCell>
        <mxCell id="-_hjf6f2TeY9m6gbgmaV-98" value="fk_id_alumno" style="shape=partialRectangle;html=1;whiteSpace=wrap;connectable=0;strokeColor=inherit;overflow=hidden;fillColor=none;top=0;left=0;bottom=0;right=0;pointerEvents=1;fontSize=16;" vertex="1" parent="-_hjf6f2TeY9m6gbgmaV-94">
          <mxGeometry x="421" width="141" height="40" as="geometry">
            <mxRectangle width="141" height="40" as="alternateBounds" />
          </mxGeometry>
        </mxCell>
        <mxCell id="-_hjf6f2TeY9m6gbgmaV-99" value="" style="shape=tableRow;horizontal=0;startSize=0;swimlaneHead=0;swimlaneBody=0;strokeColor=inherit;top=0;left=0;bottom=0;right=0;collapsible=0;dropTarget=0;fillColor=none;points=[[0,0.5],[1,0.5]];portConstraint=eastwest;fontSize=16;" vertex="1" parent="-_hjf6f2TeY9m6gbgmaV-93">
          <mxGeometry y="70" width="562" height="40" as="geometry" />
        </mxCell>
        <mxCell id="-_hjf6f2TeY9m6gbgmaV-100" value="" style="shape=partialRectangle;html=1;whiteSpace=wrap;connectable=0;strokeColor=inherit;overflow=hidden;fillColor=none;top=0;left=0;bottom=0;right=0;pointerEvents=1;fontSize=16;" vertex="1" parent="-_hjf6f2TeY9m6gbgmaV-99">
          <mxGeometry width="141" height="40" as="geometry">
            <mxRectangle width="141" height="40" as="alternateBounds" />
          </mxGeometry>
        </mxCell>
        <mxCell id="-_hjf6f2TeY9m6gbgmaV-101" value="" style="shape=partialRectangle;html=1;whiteSpace=wrap;connectable=0;strokeColor=inherit;overflow=hidden;fillColor=none;top=0;left=0;bottom=0;right=0;pointerEvents=1;fontSize=16;" vertex="1" parent="-_hjf6f2TeY9m6gbgmaV-99">
          <mxGeometry x="141" width="139" height="40" as="geometry">
            <mxRectangle width="139" height="40" as="alternateBounds" />
          </mxGeometry>
        </mxCell>
        <mxCell id="-_hjf6f2TeY9m6gbgmaV-102" style="shape=partialRectangle;html=1;whiteSpace=wrap;connectable=0;strokeColor=inherit;overflow=hidden;fillColor=none;top=0;left=0;bottom=0;right=0;pointerEvents=1;fontSize=16;" vertex="1" parent="-_hjf6f2TeY9m6gbgmaV-99">
          <mxGeometry x="280" width="141" height="40" as="geometry">
            <mxRectangle width="141" height="40" as="alternateBounds" />
          </mxGeometry>
        </mxCell>
        <mxCell id="-_hjf6f2TeY9m6gbgmaV-103" style="shape=partialRectangle;html=1;whiteSpace=wrap;connectable=0;strokeColor=inherit;overflow=hidden;fillColor=none;top=0;left=0;bottom=0;right=0;pointerEvents=1;fontSize=16;" vertex="1" parent="-_hjf6f2TeY9m6gbgmaV-99">
          <mxGeometry x="421" width="141" height="40" as="geometry">
            <mxRectangle width="141" height="40" as="alternateBounds" />
          </mxGeometry>
        </mxCell>
        <mxCell id="-_hjf6f2TeY9m6gbgmaV-104" value="" style="shape=tableRow;horizontal=0;startSize=0;swimlaneHead=0;swimlaneBody=0;strokeColor=inherit;top=0;left=0;bottom=0;right=0;collapsible=0;dropTarget=0;fillColor=none;points=[[0,0.5],[1,0.5]];portConstraint=eastwest;fontSize=16;" vertex="1" parent="-_hjf6f2TeY9m6gbgmaV-93">
          <mxGeometry y="110" width="562" height="40" as="geometry" />
        </mxCell>
        <mxCell id="-_hjf6f2TeY9m6gbgmaV-105" value="" style="shape=partialRectangle;html=1;whiteSpace=wrap;connectable=0;strokeColor=inherit;overflow=hidden;fillColor=none;top=0;left=0;bottom=0;right=0;pointerEvents=1;fontSize=16;" vertex="1" parent="-_hjf6f2TeY9m6gbgmaV-104">
          <mxGeometry width="141" height="40" as="geometry">
            <mxRectangle width="141" height="40" as="alternateBounds" />
          </mxGeometry>
        </mxCell>
        <mxCell id="-_hjf6f2TeY9m6gbgmaV-106" value="" style="shape=partialRectangle;html=1;whiteSpace=wrap;connectable=0;strokeColor=inherit;overflow=hidden;fillColor=none;top=0;left=0;bottom=0;right=0;pointerEvents=1;fontSize=16;" vertex="1" parent="-_hjf6f2TeY9m6gbgmaV-104">
          <mxGeometry x="141" width="139" height="40" as="geometry">
            <mxRectangle width="139" height="40" as="alternateBounds" />
          </mxGeometry>
        </mxCell>
        <mxCell id="-_hjf6f2TeY9m6gbgmaV-107" style="shape=partialRectangle;html=1;whiteSpace=wrap;connectable=0;strokeColor=inherit;overflow=hidden;fillColor=none;top=0;left=0;bottom=0;right=0;pointerEvents=1;fontSize=16;" vertex="1" parent="-_hjf6f2TeY9m6gbgmaV-104">
          <mxGeometry x="280" width="141" height="40" as="geometry">
            <mxRectangle width="141" height="40" as="alternateBounds" />
          </mxGeometry>
        </mxCell>
        <mxCell id="-_hjf6f2TeY9m6gbgmaV-108" style="shape=partialRectangle;html=1;whiteSpace=wrap;connectable=0;strokeColor=inherit;overflow=hidden;fillColor=none;top=0;left=0;bottom=0;right=0;pointerEvents=1;fontSize=16;" vertex="1" parent="-_hjf6f2TeY9m6gbgmaV-104">
          <mxGeometry x="421" width="141" height="40" as="geometry">
            <mxRectangle width="141" height="40" as="alternateBounds" />
          </mxGeometry>
        </mxCell>
        <mxCell id="-_hjf6f2TeY9m6gbgmaV-109" value="Preguntas" style="shape=table;startSize=30;container=1;collapsible=0;childLayout=tableLayout;strokeColor=default;fontSize=16;" vertex="1" parent="1">
          <mxGeometry x="1710" y="2030" width="421" height="150" as="geometry" />
        </mxCell>
        <mxCell id="-_hjf6f2TeY9m6gbgmaV-110" value="" style="shape=tableRow;horizontal=0;startSize=0;swimlaneHead=0;swimlaneBody=0;strokeColor=inherit;top=0;left=0;bottom=0;right=0;collapsible=0;dropTarget=0;fillColor=none;points=[[0,0.5],[1,0.5]];portConstraint=eastwest;fontSize=16;" vertex="1" parent="-_hjf6f2TeY9m6gbgmaV-109">
          <mxGeometry y="30" width="421" height="40" as="geometry" />
        </mxCell>
        <mxCell id="-_hjf6f2TeY9m6gbgmaV-111" value="pk_id" style="shape=partialRectangle;html=1;whiteSpace=wrap;connectable=0;strokeColor=inherit;overflow=hidden;fillColor=none;top=0;left=0;bottom=0;right=0;pointerEvents=1;fontSize=16;" vertex="1" parent="-_hjf6f2TeY9m6gbgmaV-110">
          <mxGeometry width="141" height="40" as="geometry">
            <mxRectangle width="141" height="40" as="alternateBounds" />
          </mxGeometry>
        </mxCell>
        <mxCell id="-_hjf6f2TeY9m6gbgmaV-112" value="enunciado" style="shape=partialRectangle;html=1;whiteSpace=wrap;connectable=0;strokeColor=inherit;overflow=hidden;fillColor=none;top=0;left=0;bottom=0;right=0;pointerEvents=1;fontSize=16;" vertex="1" parent="-_hjf6f2TeY9m6gbgmaV-110">
          <mxGeometry x="141" width="139" height="40" as="geometry">
            <mxRectangle width="139" height="40" as="alternateBounds" />
          </mxGeometry>
        </mxCell>
        <mxCell id="-_hjf6f2TeY9m6gbgmaV-113" value="solucionCorrecta" style="shape=partialRectangle;html=1;whiteSpace=wrap;connectable=0;strokeColor=inherit;overflow=hidden;fillColor=none;top=0;left=0;bottom=0;right=0;pointerEvents=1;fontSize=16;" vertex="1" parent="-_hjf6f2TeY9m6gbgmaV-110">
          <mxGeometry x="280" width="141" height="40" as="geometry">
            <mxRectangle width="141" height="40" as="alternateBounds" />
          </mxGeometry>
        </mxCell>
        <mxCell id="-_hjf6f2TeY9m6gbgmaV-115" value="" style="shape=tableRow;horizontal=0;startSize=0;swimlaneHead=0;swimlaneBody=0;strokeColor=inherit;top=0;left=0;bottom=0;right=0;collapsible=0;dropTarget=0;fillColor=none;points=[[0,0.5],[1,0.5]];portConstraint=eastwest;fontSize=16;" vertex="1" parent="-_hjf6f2TeY9m6gbgmaV-109">
          <mxGeometry y="70" width="421" height="40" as="geometry" />
        </mxCell>
        <mxCell id="-_hjf6f2TeY9m6gbgmaV-116" value="" style="shape=partialRectangle;html=1;whiteSpace=wrap;connectable=0;strokeColor=inherit;overflow=hidden;fillColor=none;top=0;left=0;bottom=0;right=0;pointerEvents=1;fontSize=16;" vertex="1" parent="-_hjf6f2TeY9m6gbgmaV-115">
          <mxGeometry width="141" height="40" as="geometry">
            <mxRectangle width="141" height="40" as="alternateBounds" />
          </mxGeometry>
        </mxCell>
        <mxCell id="-_hjf6f2TeY9m6gbgmaV-117" value="" style="shape=partialRectangle;html=1;whiteSpace=wrap;connectable=0;strokeColor=inherit;overflow=hidden;fillColor=none;top=0;left=0;bottom=0;right=0;pointerEvents=1;fontSize=16;" vertex="1" parent="-_hjf6f2TeY9m6gbgmaV-115">
          <mxGeometry x="141" width="139" height="40" as="geometry">
            <mxRectangle width="139" height="40" as="alternateBounds" />
          </mxGeometry>
        </mxCell>
        <mxCell id="-_hjf6f2TeY9m6gbgmaV-118" style="shape=partialRectangle;html=1;whiteSpace=wrap;connectable=0;strokeColor=inherit;overflow=hidden;fillColor=none;top=0;left=0;bottom=0;right=0;pointerEvents=1;fontSize=16;" vertex="1" parent="-_hjf6f2TeY9m6gbgmaV-115">
          <mxGeometry x="280" width="141" height="40" as="geometry">
            <mxRectangle width="141" height="40" as="alternateBounds" />
          </mxGeometry>
        </mxCell>
        <mxCell id="-_hjf6f2TeY9m6gbgmaV-120" value="" style="shape=tableRow;horizontal=0;startSize=0;swimlaneHead=0;swimlaneBody=0;strokeColor=inherit;top=0;left=0;bottom=0;right=0;collapsible=0;dropTarget=0;fillColor=none;points=[[0,0.5],[1,0.5]];portConstraint=eastwest;fontSize=16;" vertex="1" parent="-_hjf6f2TeY9m6gbgmaV-109">
          <mxGeometry y="110" width="421" height="40" as="geometry" />
        </mxCell>
        <mxCell id="-_hjf6f2TeY9m6gbgmaV-121" value="" style="shape=partialRectangle;html=1;whiteSpace=wrap;connectable=0;strokeColor=inherit;overflow=hidden;fillColor=none;top=0;left=0;bottom=0;right=0;pointerEvents=1;fontSize=16;" vertex="1" parent="-_hjf6f2TeY9m6gbgmaV-120">
          <mxGeometry width="141" height="40" as="geometry">
            <mxRectangle width="141" height="40" as="alternateBounds" />
          </mxGeometry>
        </mxCell>
        <mxCell id="-_hjf6f2TeY9m6gbgmaV-122" value="" style="shape=partialRectangle;html=1;whiteSpace=wrap;connectable=0;strokeColor=inherit;overflow=hidden;fillColor=none;top=0;left=0;bottom=0;right=0;pointerEvents=1;fontSize=16;" vertex="1" parent="-_hjf6f2TeY9m6gbgmaV-120">
          <mxGeometry x="141" width="139" height="40" as="geometry">
            <mxRectangle width="139" height="40" as="alternateBounds" />
          </mxGeometry>
        </mxCell>
        <mxCell id="-_hjf6f2TeY9m6gbgmaV-123" style="shape=partialRectangle;html=1;whiteSpace=wrap;connectable=0;strokeColor=inherit;overflow=hidden;fillColor=none;top=0;left=0;bottom=0;right=0;pointerEvents=1;fontSize=16;" vertex="1" parent="-_hjf6f2TeY9m6gbgmaV-120">
          <mxGeometry x="280" width="141" height="40" as="geometry">
            <mxRectangle width="141" height="40" as="alternateBounds" />
          </mxGeometry>
        </mxCell>
        <mxCell id="-_hjf6f2TeY9m6gbgmaV-125" value="InformePeriodico" style="shape=table;startSize=30;container=1;collapsible=0;childLayout=tableLayout;strokeColor=default;fontSize=16;" vertex="1" parent="1">
          <mxGeometry x="1760" y="995" width="562" height="150" as="geometry" />
        </mxCell>
        <mxCell id="-_hjf6f2TeY9m6gbgmaV-126" value="" style="shape=tableRow;horizontal=0;startSize=0;swimlaneHead=0;swimlaneBody=0;strokeColor=inherit;top=0;left=0;bottom=0;right=0;collapsible=0;dropTarget=0;fillColor=none;points=[[0,0.5],[1,0.5]];portConstraint=eastwest;fontSize=16;" vertex="1" parent="-_hjf6f2TeY9m6gbgmaV-125">
          <mxGeometry y="30" width="562" height="40" as="geometry" />
        </mxCell>
        <mxCell id="-_hjf6f2TeY9m6gbgmaV-127" value="numTestRealizados" style="shape=partialRectangle;html=1;whiteSpace=wrap;connectable=0;strokeColor=inherit;overflow=hidden;fillColor=none;top=0;left=0;bottom=0;right=0;pointerEvents=1;fontSize=16;" vertex="1" parent="-_hjf6f2TeY9m6gbgmaV-126">
          <mxGeometry width="141" height="40" as="geometry">
            <mxRectangle width="141" height="40" as="alternateBounds" />
          </mxGeometry>
        </mxCell>
        <mxCell id="-_hjf6f2TeY9m6gbgmaV-128" value="pk_id" style="shape=partialRectangle;html=1;whiteSpace=wrap;connectable=0;strokeColor=inherit;overflow=hidden;fillColor=none;top=0;left=0;bottom=0;right=0;pointerEvents=1;fontSize=16;" vertex="1" parent="-_hjf6f2TeY9m6gbgmaV-126">
          <mxGeometry x="141" width="139" height="40" as="geometry">
            <mxRectangle width="139" height="40" as="alternateBounds" />
          </mxGeometry>
        </mxCell>
        <mxCell id="-_hjf6f2TeY9m6gbgmaV-129" value="%testAprobados" style="shape=partialRectangle;html=1;whiteSpace=wrap;connectable=0;strokeColor=inherit;overflow=hidden;fillColor=none;top=0;left=0;bottom=0;right=0;pointerEvents=1;fontSize=16;" vertex="1" parent="-_hjf6f2TeY9m6gbgmaV-126">
          <mxGeometry x="280" width="141" height="40" as="geometry">
            <mxRectangle width="141" height="40" as="alternateBounds" />
          </mxGeometry>
        </mxCell>
        <mxCell id="-_hjf6f2TeY9m6gbgmaV-130" value="fk_id_alumno" style="shape=partialRectangle;html=1;whiteSpace=wrap;connectable=0;strokeColor=inherit;overflow=hidden;fillColor=none;top=0;left=0;bottom=0;right=0;pointerEvents=1;fontSize=16;" vertex="1" parent="-_hjf6f2TeY9m6gbgmaV-126">
          <mxGeometry x="421" width="141" height="40" as="geometry">
            <mxRectangle width="141" height="40" as="alternateBounds" />
          </mxGeometry>
        </mxCell>
        <mxCell id="-_hjf6f2TeY9m6gbgmaV-131" value="" style="shape=tableRow;horizontal=0;startSize=0;swimlaneHead=0;swimlaneBody=0;strokeColor=inherit;top=0;left=0;bottom=0;right=0;collapsible=0;dropTarget=0;fillColor=none;points=[[0,0.5],[1,0.5]];portConstraint=eastwest;fontSize=16;" vertex="1" parent="-_hjf6f2TeY9m6gbgmaV-125">
          <mxGeometry y="70" width="562" height="40" as="geometry" />
        </mxCell>
        <mxCell id="-_hjf6f2TeY9m6gbgmaV-132" value="" style="shape=partialRectangle;html=1;whiteSpace=wrap;connectable=0;strokeColor=inherit;overflow=hidden;fillColor=none;top=0;left=0;bottom=0;right=0;pointerEvents=1;fontSize=16;" vertex="1" parent="-_hjf6f2TeY9m6gbgmaV-131">
          <mxGeometry width="141" height="40" as="geometry">
            <mxRectangle width="141" height="40" as="alternateBounds" />
          </mxGeometry>
        </mxCell>
        <mxCell id="-_hjf6f2TeY9m6gbgmaV-133" value="" style="shape=partialRectangle;html=1;whiteSpace=wrap;connectable=0;strokeColor=inherit;overflow=hidden;fillColor=none;top=0;left=0;bottom=0;right=0;pointerEvents=1;fontSize=16;" vertex="1" parent="-_hjf6f2TeY9m6gbgmaV-131">
          <mxGeometry x="141" width="139" height="40" as="geometry">
            <mxRectangle width="139" height="40" as="alternateBounds" />
          </mxGeometry>
        </mxCell>
        <mxCell id="-_hjf6f2TeY9m6gbgmaV-134" style="shape=partialRectangle;html=1;whiteSpace=wrap;connectable=0;strokeColor=inherit;overflow=hidden;fillColor=none;top=0;left=0;bottom=0;right=0;pointerEvents=1;fontSize=16;" vertex="1" parent="-_hjf6f2TeY9m6gbgmaV-131">
          <mxGeometry x="280" width="141" height="40" as="geometry">
            <mxRectangle width="141" height="40" as="alternateBounds" />
          </mxGeometry>
        </mxCell>
        <mxCell id="-_hjf6f2TeY9m6gbgmaV-135" style="shape=partialRectangle;html=1;whiteSpace=wrap;connectable=0;strokeColor=inherit;overflow=hidden;fillColor=none;top=0;left=0;bottom=0;right=0;pointerEvents=1;fontSize=16;" vertex="1" parent="-_hjf6f2TeY9m6gbgmaV-131">
          <mxGeometry x="421" width="141" height="40" as="geometry">
            <mxRectangle width="141" height="40" as="alternateBounds" />
          </mxGeometry>
        </mxCell>
        <mxCell id="-_hjf6f2TeY9m6gbgmaV-136" value="" style="shape=tableRow;horizontal=0;startSize=0;swimlaneHead=0;swimlaneBody=0;strokeColor=inherit;top=0;left=0;bottom=0;right=0;collapsible=0;dropTarget=0;fillColor=none;points=[[0,0.5],[1,0.5]];portConstraint=eastwest;fontSize=16;" vertex="1" parent="-_hjf6f2TeY9m6gbgmaV-125">
          <mxGeometry y="110" width="562" height="40" as="geometry" />
        </mxCell>
        <mxCell id="-_hjf6f2TeY9m6gbgmaV-137" value="" style="shape=partialRectangle;html=1;whiteSpace=wrap;connectable=0;strokeColor=inherit;overflow=hidden;fillColor=none;top=0;left=0;bottom=0;right=0;pointerEvents=1;fontSize=16;" vertex="1" parent="-_hjf6f2TeY9m6gbgmaV-136">
          <mxGeometry width="141" height="40" as="geometry">
            <mxRectangle width="141" height="40" as="alternateBounds" />
          </mxGeometry>
        </mxCell>
        <mxCell id="-_hjf6f2TeY9m6gbgmaV-138" value="" style="shape=partialRectangle;html=1;whiteSpace=wrap;connectable=0;strokeColor=inherit;overflow=hidden;fillColor=none;top=0;left=0;bottom=0;right=0;pointerEvents=1;fontSize=16;" vertex="1" parent="-_hjf6f2TeY9m6gbgmaV-136">
          <mxGeometry x="141" width="139" height="40" as="geometry">
            <mxRectangle width="139" height="40" as="alternateBounds" />
          </mxGeometry>
        </mxCell>
        <mxCell id="-_hjf6f2TeY9m6gbgmaV-139" style="shape=partialRectangle;html=1;whiteSpace=wrap;connectable=0;strokeColor=inherit;overflow=hidden;fillColor=none;top=0;left=0;bottom=0;right=0;pointerEvents=1;fontSize=16;" vertex="1" parent="-_hjf6f2TeY9m6gbgmaV-136">
          <mxGeometry x="280" width="141" height="40" as="geometry">
            <mxRectangle width="141" height="40" as="alternateBounds" />
          </mxGeometry>
        </mxCell>
        <mxCell id="-_hjf6f2TeY9m6gbgmaV-140" style="shape=partialRectangle;html=1;whiteSpace=wrap;connectable=0;strokeColor=inherit;overflow=hidden;fillColor=none;top=0;left=0;bottom=0;right=0;pointerEvents=1;fontSize=16;" vertex="1" parent="-_hjf6f2TeY9m6gbgmaV-136">
          <mxGeometry x="421" width="141" height="40" as="geometry">
            <mxRectangle width="141" height="40" as="alternateBounds" />
          </mxGeometry>
        </mxCell>
        <mxCell id="-_hjf6f2TeY9m6gbgmaV-142" value="" style="endArrow=none;html=1;rounded=0;exitX=1;exitY=0.5;exitDx=0;exitDy=0;entryX=0;entryY=0.5;entryDx=0;entryDy=0;" edge="1" parent="1" source="80IqMO9L08kLf_JqDXmp-37" target="80IqMO9L08kLf_JqDXmp-3">
          <mxGeometry width="50" height="50" relative="1" as="geometry">
            <mxPoint x="-140" y="530" as="sourcePoint" />
            <mxPoint x="-90" y="480" as="targetPoint" />
          </mxGeometry>
        </mxCell>
        <mxCell id="-_hjf6f2TeY9m6gbgmaV-144" value="Administrativo_InformePeriodico_Alumno" style="shape=table;startSize=30;container=1;collapsible=0;childLayout=tableLayout;strokeColor=default;fontSize=16;" vertex="1" parent="1">
          <mxGeometry x="1810" y="720" width="421" height="150" as="geometry" />
        </mxCell>
        <mxCell id="-_hjf6f2TeY9m6gbgmaV-145" value="" style="shape=tableRow;horizontal=0;startSize=0;swimlaneHead=0;swimlaneBody=0;strokeColor=inherit;top=0;left=0;bottom=0;right=0;collapsible=0;dropTarget=0;fillColor=none;points=[[0,0.5],[1,0.5]];portConstraint=eastwest;fontSize=16;" vertex="1" parent="-_hjf6f2TeY9m6gbgmaV-144">
          <mxGeometry y="30" width="421" height="40" as="geometry" />
        </mxCell>
        <mxCell id="-_hjf6f2TeY9m6gbgmaV-146" value="fk_Administrativo_id" style="shape=partialRectangle;html=1;whiteSpace=wrap;connectable=0;strokeColor=inherit;overflow=hidden;fillColor=none;top=0;left=0;bottom=0;right=0;pointerEvents=1;fontSize=16;" vertex="1" parent="-_hjf6f2TeY9m6gbgmaV-145">
          <mxGeometry width="141" height="40" as="geometry">
            <mxRectangle width="141" height="40" as="alternateBounds" />
          </mxGeometry>
        </mxCell>
        <mxCell id="-_hjf6f2TeY9m6gbgmaV-147" value="fk_InformeId" style="shape=partialRectangle;html=1;whiteSpace=wrap;connectable=0;strokeColor=inherit;overflow=hidden;fillColor=none;top=0;left=0;bottom=0;right=0;pointerEvents=1;fontSize=16;" vertex="1" parent="-_hjf6f2TeY9m6gbgmaV-145">
          <mxGeometry x="141" width="139" height="40" as="geometry">
            <mxRectangle width="139" height="40" as="alternateBounds" />
          </mxGeometry>
        </mxCell>
        <mxCell id="-_hjf6f2TeY9m6gbgmaV-148" value="fk_alumnoId" style="shape=partialRectangle;html=1;whiteSpace=wrap;connectable=0;strokeColor=inherit;overflow=hidden;fillColor=none;top=0;left=0;bottom=0;right=0;pointerEvents=1;fontSize=16;" vertex="1" parent="-_hjf6f2TeY9m6gbgmaV-145">
          <mxGeometry x="280" width="141" height="40" as="geometry">
            <mxRectangle width="141" height="40" as="alternateBounds" />
          </mxGeometry>
        </mxCell>
        <mxCell id="-_hjf6f2TeY9m6gbgmaV-150" value="" style="shape=tableRow;horizontal=0;startSize=0;swimlaneHead=0;swimlaneBody=0;strokeColor=inherit;top=0;left=0;bottom=0;right=0;collapsible=0;dropTarget=0;fillColor=none;points=[[0,0.5],[1,0.5]];portConstraint=eastwest;fontSize=16;" vertex="1" parent="-_hjf6f2TeY9m6gbgmaV-144">
          <mxGeometry y="70" width="421" height="40" as="geometry" />
        </mxCell>
        <mxCell id="-_hjf6f2TeY9m6gbgmaV-151" value="" style="shape=partialRectangle;html=1;whiteSpace=wrap;connectable=0;strokeColor=inherit;overflow=hidden;fillColor=none;top=0;left=0;bottom=0;right=0;pointerEvents=1;fontSize=16;" vertex="1" parent="-_hjf6f2TeY9m6gbgmaV-150">
          <mxGeometry width="141" height="40" as="geometry">
            <mxRectangle width="141" height="40" as="alternateBounds" />
          </mxGeometry>
        </mxCell>
        <mxCell id="-_hjf6f2TeY9m6gbgmaV-152" value="" style="shape=partialRectangle;html=1;whiteSpace=wrap;connectable=0;strokeColor=inherit;overflow=hidden;fillColor=none;top=0;left=0;bottom=0;right=0;pointerEvents=1;fontSize=16;" vertex="1" parent="-_hjf6f2TeY9m6gbgmaV-150">
          <mxGeometry x="141" width="139" height="40" as="geometry">
            <mxRectangle width="139" height="40" as="alternateBounds" />
          </mxGeometry>
        </mxCell>
        <mxCell id="-_hjf6f2TeY9m6gbgmaV-153" style="shape=partialRectangle;html=1;whiteSpace=wrap;connectable=0;strokeColor=inherit;overflow=hidden;fillColor=none;top=0;left=0;bottom=0;right=0;pointerEvents=1;fontSize=16;" vertex="1" parent="-_hjf6f2TeY9m6gbgmaV-150">
          <mxGeometry x="280" width="141" height="40" as="geometry">
            <mxRectangle width="141" height="40" as="alternateBounds" />
          </mxGeometry>
        </mxCell>
        <mxCell id="-_hjf6f2TeY9m6gbgmaV-155" value="" style="shape=tableRow;horizontal=0;startSize=0;swimlaneHead=0;swimlaneBody=0;strokeColor=inherit;top=0;left=0;bottom=0;right=0;collapsible=0;dropTarget=0;fillColor=none;points=[[0,0.5],[1,0.5]];portConstraint=eastwest;fontSize=16;" vertex="1" parent="-_hjf6f2TeY9m6gbgmaV-144">
          <mxGeometry y="110" width="421" height="40" as="geometry" />
        </mxCell>
        <mxCell id="-_hjf6f2TeY9m6gbgmaV-156" value="" style="shape=partialRectangle;html=1;whiteSpace=wrap;connectable=0;strokeColor=inherit;overflow=hidden;fillColor=none;top=0;left=0;bottom=0;right=0;pointerEvents=1;fontSize=16;" vertex="1" parent="-_hjf6f2TeY9m6gbgmaV-155">
          <mxGeometry width="141" height="40" as="geometry">
            <mxRectangle width="141" height="40" as="alternateBounds" />
          </mxGeometry>
        </mxCell>
        <mxCell id="-_hjf6f2TeY9m6gbgmaV-157" value="" style="shape=partialRectangle;html=1;whiteSpace=wrap;connectable=0;strokeColor=inherit;overflow=hidden;fillColor=none;top=0;left=0;bottom=0;right=0;pointerEvents=1;fontSize=16;" vertex="1" parent="-_hjf6f2TeY9m6gbgmaV-155">
          <mxGeometry x="141" width="139" height="40" as="geometry">
            <mxRectangle width="139" height="40" as="alternateBounds" />
          </mxGeometry>
        </mxCell>
        <mxCell id="-_hjf6f2TeY9m6gbgmaV-158" style="shape=partialRectangle;html=1;whiteSpace=wrap;connectable=0;strokeColor=inherit;overflow=hidden;fillColor=none;top=0;left=0;bottom=0;right=0;pointerEvents=1;fontSize=16;" vertex="1" parent="-_hjf6f2TeY9m6gbgmaV-155">
          <mxGeometry x="280" width="141" height="40" as="geometry">
            <mxRectangle width="141" height="40" as="alternateBounds" />
          </mxGeometry>
        </mxCell>
        <mxCell id="-_hjf6f2TeY9m6gbgmaV-160" value="Profesor_Clase_Alumno" style="shape=table;startSize=30;container=1;collapsible=0;childLayout=tableLayout;strokeColor=default;fontSize=16;" vertex="1" parent="1">
          <mxGeometry x="2740" y="740" width="421" height="150" as="geometry" />
        </mxCell>
        <mxCell id="-_hjf6f2TeY9m6gbgmaV-161" value="" style="shape=tableRow;horizontal=0;startSize=0;swimlaneHead=0;swimlaneBody=0;strokeColor=inherit;top=0;left=0;bottom=0;right=0;collapsible=0;dropTarget=0;fillColor=none;points=[[0,0.5],[1,0.5]];portConstraint=eastwest;fontSize=16;" vertex="1" parent="-_hjf6f2TeY9m6gbgmaV-160">
          <mxGeometry y="30" width="421" height="40" as="geometry" />
        </mxCell>
        <mxCell id="-_hjf6f2TeY9m6gbgmaV-162" value="fk_alumnoId" style="shape=partialRectangle;html=1;whiteSpace=wrap;connectable=0;strokeColor=inherit;overflow=hidden;fillColor=none;top=0;left=0;bottom=0;right=0;pointerEvents=1;fontSize=16;" vertex="1" parent="-_hjf6f2TeY9m6gbgmaV-161">
          <mxGeometry width="141" height="40" as="geometry">
            <mxRectangle width="141" height="40" as="alternateBounds" />
          </mxGeometry>
        </mxCell>
        <mxCell id="-_hjf6f2TeY9m6gbgmaV-163" value="fk_claseId" style="shape=partialRectangle;html=1;whiteSpace=wrap;connectable=0;strokeColor=inherit;overflow=hidden;fillColor=none;top=0;left=0;bottom=0;right=0;pointerEvents=1;fontSize=16;" vertex="1" parent="-_hjf6f2TeY9m6gbgmaV-161">
          <mxGeometry x="141" width="139" height="40" as="geometry">
            <mxRectangle width="139" height="40" as="alternateBounds" />
          </mxGeometry>
        </mxCell>
        <mxCell id="-_hjf6f2TeY9m6gbgmaV-164" value="fk_profesorId" style="shape=partialRectangle;html=1;whiteSpace=wrap;connectable=0;strokeColor=inherit;overflow=hidden;fillColor=none;top=0;left=0;bottom=0;right=0;pointerEvents=1;fontSize=16;" vertex="1" parent="-_hjf6f2TeY9m6gbgmaV-161">
          <mxGeometry x="280" width="141" height="40" as="geometry">
            <mxRectangle width="141" height="40" as="alternateBounds" />
          </mxGeometry>
        </mxCell>
        <mxCell id="-_hjf6f2TeY9m6gbgmaV-165" value="" style="shape=tableRow;horizontal=0;startSize=0;swimlaneHead=0;swimlaneBody=0;strokeColor=inherit;top=0;left=0;bottom=0;right=0;collapsible=0;dropTarget=0;fillColor=none;points=[[0,0.5],[1,0.5]];portConstraint=eastwest;fontSize=16;" vertex="1" parent="-_hjf6f2TeY9m6gbgmaV-160">
          <mxGeometry y="70" width="421" height="40" as="geometry" />
        </mxCell>
        <mxCell id="-_hjf6f2TeY9m6gbgmaV-166" value="" style="shape=partialRectangle;html=1;whiteSpace=wrap;connectable=0;strokeColor=inherit;overflow=hidden;fillColor=none;top=0;left=0;bottom=0;right=0;pointerEvents=1;fontSize=16;" vertex="1" parent="-_hjf6f2TeY9m6gbgmaV-165">
          <mxGeometry width="141" height="40" as="geometry">
            <mxRectangle width="141" height="40" as="alternateBounds" />
          </mxGeometry>
        </mxCell>
        <mxCell id="-_hjf6f2TeY9m6gbgmaV-167" value="" style="shape=partialRectangle;html=1;whiteSpace=wrap;connectable=0;strokeColor=inherit;overflow=hidden;fillColor=none;top=0;left=0;bottom=0;right=0;pointerEvents=1;fontSize=16;" vertex="1" parent="-_hjf6f2TeY9m6gbgmaV-165">
          <mxGeometry x="141" width="139" height="40" as="geometry">
            <mxRectangle width="139" height="40" as="alternateBounds" />
          </mxGeometry>
        </mxCell>
        <mxCell id="-_hjf6f2TeY9m6gbgmaV-168" style="shape=partialRectangle;html=1;whiteSpace=wrap;connectable=0;strokeColor=inherit;overflow=hidden;fillColor=none;top=0;left=0;bottom=0;right=0;pointerEvents=1;fontSize=16;" vertex="1" parent="-_hjf6f2TeY9m6gbgmaV-165">
          <mxGeometry x="280" width="141" height="40" as="geometry">
            <mxRectangle width="141" height="40" as="alternateBounds" />
          </mxGeometry>
        </mxCell>
        <mxCell id="-_hjf6f2TeY9m6gbgmaV-169" value="" style="shape=tableRow;horizontal=0;startSize=0;swimlaneHead=0;swimlaneBody=0;strokeColor=inherit;top=0;left=0;bottom=0;right=0;collapsible=0;dropTarget=0;fillColor=none;points=[[0,0.5],[1,0.5]];portConstraint=eastwest;fontSize=16;" vertex="1" parent="-_hjf6f2TeY9m6gbgmaV-160">
          <mxGeometry y="110" width="421" height="40" as="geometry" />
        </mxCell>
        <mxCell id="-_hjf6f2TeY9m6gbgmaV-170" value="" style="shape=partialRectangle;html=1;whiteSpace=wrap;connectable=0;strokeColor=inherit;overflow=hidden;fillColor=none;top=0;left=0;bottom=0;right=0;pointerEvents=1;fontSize=16;" vertex="1" parent="-_hjf6f2TeY9m6gbgmaV-169">
          <mxGeometry width="141" height="40" as="geometry">
            <mxRectangle width="141" height="40" as="alternateBounds" />
          </mxGeometry>
        </mxCell>
        <mxCell id="-_hjf6f2TeY9m6gbgmaV-171" value="" style="shape=partialRectangle;html=1;whiteSpace=wrap;connectable=0;strokeColor=inherit;overflow=hidden;fillColor=none;top=0;left=0;bottom=0;right=0;pointerEvents=1;fontSize=16;" vertex="1" parent="-_hjf6f2TeY9m6gbgmaV-169">
          <mxGeometry x="141" width="139" height="40" as="geometry">
            <mxRectangle width="139" height="40" as="alternateBounds" />
          </mxGeometry>
        </mxCell>
        <mxCell id="-_hjf6f2TeY9m6gbgmaV-172" style="shape=partialRectangle;html=1;whiteSpace=wrap;connectable=0;strokeColor=inherit;overflow=hidden;fillColor=none;top=0;left=0;bottom=0;right=0;pointerEvents=1;fontSize=16;" vertex="1" parent="-_hjf6f2TeY9m6gbgmaV-169">
          <mxGeometry x="280" width="141" height="40" as="geometry">
            <mxRectangle width="141" height="40" as="alternateBounds" />
          </mxGeometry>
        </mxCell>
        <mxCell id="-_hjf6f2TeY9m6gbgmaV-173" value="" style="endArrow=classic;html=1;rounded=0;exitX=1;exitY=0.5;exitDx=0;exitDy=0;entryX=0;entryY=0.5;entryDx=0;entryDy=0;" edge="1" parent="1" source="-_hjf6f2TeY9m6gbgmaV-41" target="-_hjf6f2TeY9m6gbgmaV-145">
          <mxGeometry width="50" height="50" relative="1" as="geometry">
            <mxPoint x="2032" y="575" as="sourcePoint" />
            <mxPoint x="2082" y="525" as="targetPoint" />
          </mxGeometry>
        </mxCell>
        <mxCell id="-_hjf6f2TeY9m6gbgmaV-178" value="" style="endArrow=classic;html=1;rounded=0;exitX=1;exitY=0.5;exitDx=0;exitDy=0;entryX=1;entryY=0.5;entryDx=0;entryDy=0;" edge="1" parent="1" source="-_hjf6f2TeY9m6gbgmaV-31" target="-_hjf6f2TeY9m6gbgmaV-145">
          <mxGeometry width="50" height="50" relative="1" as="geometry">
            <mxPoint x="2940" y="560" as="sourcePoint" />
            <mxPoint x="2990" y="510" as="targetPoint" />
            <Array as="points">
              <mxPoint x="2800" y="400" />
              <mxPoint x="2800" y="640" />
              <mxPoint x="2480" y="640" />
              <mxPoint x="2480" y="770" />
            </Array>
          </mxGeometry>
        </mxCell>
        <mxCell id="-_hjf6f2TeY9m6gbgmaV-179" value="" style="endArrow=classic;html=1;rounded=0;exitX=1;exitY=0.5;exitDx=0;exitDy=0;entryX=0;entryY=0.5;entryDx=0;entryDy=0;" edge="1" parent="1" source="-_hjf6f2TeY9m6gbgmaV-31" target="-_hjf6f2TeY9m6gbgmaV-161">
          <mxGeometry width="50" height="50" relative="1" as="geometry">
            <mxPoint x="2920" y="480" as="sourcePoint" />
            <mxPoint x="2970" y="430" as="targetPoint" />
            <Array as="points">
              <mxPoint x="2670" y="400" />
              <mxPoint x="2670" y="790" />
            </Array>
          </mxGeometry>
        </mxCell>
        <mxCell id="-_hjf6f2TeY9m6gbgmaV-180" value="" style="endArrow=classic;html=1;rounded=0;exitX=1;exitY=0.5;exitDx=0;exitDy=0;entryX=1;entryY=0.5;entryDx=0;entryDy=0;" edge="1" parent="1" source="-_hjf6f2TeY9m6gbgmaV-18" target="-_hjf6f2TeY9m6gbgmaV-161">
          <mxGeometry width="50" height="50" relative="1" as="geometry">
            <mxPoint x="3520" y="700" as="sourcePoint" />
            <mxPoint x="3570" y="650" as="targetPoint" />
            <Array as="points">
              <mxPoint x="3580" y="480" />
              <mxPoint x="3580" y="790" />
            </Array>
          </mxGeometry>
        </mxCell>
        <mxCell id="-_hjf6f2TeY9m6gbgmaV-181" value="" style="endArrow=classic;html=1;rounded=0;exitX=0.349;exitY=1.05;exitDx=0;exitDy=0;exitPerimeter=0;entryX=0.473;entryY=0.95;entryDx=0;entryDy=0;entryPerimeter=0;" edge="1" parent="1" source="-_hjf6f2TeY9m6gbgmaV-64" target="-_hjf6f2TeY9m6gbgmaV-169">
          <mxGeometry width="50" height="50" relative="1" as="geometry">
            <mxPoint x="3230" y="1220" as="sourcePoint" />
            <mxPoint x="3280" y="1170" as="targetPoint" />
            <Array as="points">
              <mxPoint x="3233" y="1190" />
              <mxPoint x="2939" y="1190" />
            </Array>
          </mxGeometry>
        </mxCell>
        <mxCell id="-_hjf6f2TeY9m6gbgmaV-182" value="" style="endArrow=classic;html=1;rounded=0;exitX=0.361;exitY=1.025;exitDx=0;exitDy=0;exitPerimeter=0;entryX=0.482;entryY=1;entryDx=0;entryDy=0;entryPerimeter=0;" edge="1" parent="1" source="-_hjf6f2TeY9m6gbgmaV-136" target="-_hjf6f2TeY9m6gbgmaV-155">
          <mxGeometry width="50" height="50" relative="1" as="geometry">
            <mxPoint x="1880" y="1340" as="sourcePoint" />
            <mxPoint x="1930" y="1290" as="targetPoint" />
            <Array as="points">
              <mxPoint x="1963" y="1200" />
              <mxPoint x="1620" y="1200" />
              <mxPoint x="1620" y="920" />
              <mxPoint x="2013" y="920" />
            </Array>
          </mxGeometry>
        </mxCell>
        <mxCell id="-_hjf6f2TeY9m6gbgmaV-183" value="" style="endArrow=classic;html=1;rounded=0;exitX=1;exitY=0.5;exitDx=0;exitDy=0;entryX=0.358;entryY=1.242;entryDx=0;entryDy=0;entryPerimeter=0;" edge="1" parent="1" source="-_hjf6f2TeY9m6gbgmaV-31" target="-_hjf6f2TeY9m6gbgmaV-104">
          <mxGeometry width="50" height="50" relative="1" as="geometry">
            <mxPoint x="2550" y="1010" as="sourcePoint" />
            <mxPoint x="2600" y="960" as="targetPoint" />
            <Array as="points">
              <mxPoint x="2640" y="400" />
              <mxPoint x="2640" y="1670" />
              <mxPoint x="1971" y="1670" />
            </Array>
          </mxGeometry>
        </mxCell>
        <mxCell id="-_hjf6f2TeY9m6gbgmaV-184" value="" style="endArrow=classic;html=1;rounded=0;exitX=1;exitY=0.5;exitDx=0;exitDy=0;entryX=0.376;entryY=1.117;entryDx=0;entryDy=0;entryPerimeter=0;" edge="1" parent="1" source="-_hjf6f2TeY9m6gbgmaV-31" target="-_hjf6f2TeY9m6gbgmaV-88">
          <mxGeometry width="50" height="50" relative="1" as="geometry">
            <mxPoint x="2530" y="1130" as="sourcePoint" />
            <mxPoint x="2580" y="1080" as="targetPoint" />
            <Array as="points">
              <mxPoint x="2610" y="400" />
              <mxPoint x="2610" y="1590" />
              <mxPoint x="3131" y="1590" />
            </Array>
          </mxGeometry>
        </mxCell>
        <mxCell id="-_hjf6f2TeY9m6gbgmaV-185" value="Test_Preguntas" style="shape=table;startSize=30;container=1;collapsible=0;childLayout=tableLayout;strokeColor=default;fontSize=16;" vertex="1" parent="1">
          <mxGeometry x="1750" y="1770" width="350" height="160" as="geometry" />
        </mxCell>
        <mxCell id="-_hjf6f2TeY9m6gbgmaV-186" value="" style="shape=tableRow;horizontal=0;startSize=0;swimlaneHead=0;swimlaneBody=0;strokeColor=inherit;top=0;left=0;bottom=0;right=0;collapsible=0;dropTarget=0;fillColor=none;points=[[0,0.5],[1,0.5]];portConstraint=eastwest;fontSize=16;" vertex="1" parent="-_hjf6f2TeY9m6gbgmaV-185">
          <mxGeometry y="30" width="350" height="50" as="geometry" />
        </mxCell>
        <mxCell id="-_hjf6f2TeY9m6gbgmaV-187" value="fk_preguntasId" style="shape=partialRectangle;html=1;whiteSpace=wrap;connectable=0;strokeColor=inherit;overflow=hidden;fillColor=none;top=0;left=0;bottom=0;right=0;pointerEvents=1;fontSize=16;" vertex="1" parent="-_hjf6f2TeY9m6gbgmaV-186">
          <mxGeometry width="176" height="50" as="geometry">
            <mxRectangle width="176" height="50" as="alternateBounds" />
          </mxGeometry>
        </mxCell>
        <mxCell id="-_hjf6f2TeY9m6gbgmaV-188" value="fk_testId" style="shape=partialRectangle;html=1;whiteSpace=wrap;connectable=0;strokeColor=inherit;overflow=hidden;fillColor=none;top=0;left=0;bottom=0;right=0;pointerEvents=1;fontSize=16;" vertex="1" parent="-_hjf6f2TeY9m6gbgmaV-186">
          <mxGeometry x="176" width="174" height="50" as="geometry">
            <mxRectangle width="174" height="50" as="alternateBounds" />
          </mxGeometry>
        </mxCell>
        <mxCell id="-_hjf6f2TeY9m6gbgmaV-190" value="" style="shape=tableRow;horizontal=0;startSize=0;swimlaneHead=0;swimlaneBody=0;strokeColor=inherit;top=0;left=0;bottom=0;right=0;collapsible=0;dropTarget=0;fillColor=none;points=[[0,0.5],[1,0.5]];portConstraint=eastwest;fontSize=16;" vertex="1" parent="-_hjf6f2TeY9m6gbgmaV-185">
          <mxGeometry y="80" width="350" height="40" as="geometry" />
        </mxCell>
        <mxCell id="-_hjf6f2TeY9m6gbgmaV-191" value="" style="shape=partialRectangle;html=1;whiteSpace=wrap;connectable=0;strokeColor=inherit;overflow=hidden;fillColor=none;top=0;left=0;bottom=0;right=0;pointerEvents=1;fontSize=16;" vertex="1" parent="-_hjf6f2TeY9m6gbgmaV-190">
          <mxGeometry width="176" height="40" as="geometry">
            <mxRectangle width="176" height="40" as="alternateBounds" />
          </mxGeometry>
        </mxCell>
        <mxCell id="-_hjf6f2TeY9m6gbgmaV-192" value="" style="shape=partialRectangle;html=1;whiteSpace=wrap;connectable=0;strokeColor=inherit;overflow=hidden;fillColor=none;top=0;left=0;bottom=0;right=0;pointerEvents=1;fontSize=16;" vertex="1" parent="-_hjf6f2TeY9m6gbgmaV-190">
          <mxGeometry x="176" width="174" height="40" as="geometry">
            <mxRectangle width="174" height="40" as="alternateBounds" />
          </mxGeometry>
        </mxCell>
        <mxCell id="-_hjf6f2TeY9m6gbgmaV-194" value="" style="shape=tableRow;horizontal=0;startSize=0;swimlaneHead=0;swimlaneBody=0;strokeColor=inherit;top=0;left=0;bottom=0;right=0;collapsible=0;dropTarget=0;fillColor=none;points=[[0,0.5],[1,0.5]];portConstraint=eastwest;fontSize=16;" vertex="1" parent="-_hjf6f2TeY9m6gbgmaV-185">
          <mxGeometry y="120" width="350" height="40" as="geometry" />
        </mxCell>
        <mxCell id="-_hjf6f2TeY9m6gbgmaV-195" value="" style="shape=partialRectangle;html=1;whiteSpace=wrap;connectable=0;strokeColor=inherit;overflow=hidden;fillColor=none;top=0;left=0;bottom=0;right=0;pointerEvents=1;fontSize=16;" vertex="1" parent="-_hjf6f2TeY9m6gbgmaV-194">
          <mxGeometry width="176" height="40" as="geometry">
            <mxRectangle width="176" height="40" as="alternateBounds" />
          </mxGeometry>
        </mxCell>
        <mxCell id="-_hjf6f2TeY9m6gbgmaV-196" value="" style="shape=partialRectangle;html=1;whiteSpace=wrap;connectable=0;strokeColor=inherit;overflow=hidden;fillColor=none;top=0;left=0;bottom=0;right=0;pointerEvents=1;fontSize=16;" vertex="1" parent="-_hjf6f2TeY9m6gbgmaV-194">
          <mxGeometry x="176" width="174" height="40" as="geometry">
            <mxRectangle width="174" height="40" as="alternateBounds" />
          </mxGeometry>
        </mxCell>
        <mxCell id="-_hjf6f2TeY9m6gbgmaV-198" value="" style="endArrow=classic;html=1;rounded=0;exitX=0;exitY=0.5;exitDx=0;exitDy=0;entryX=0;entryY=0.5;entryDx=0;entryDy=0;" edge="1" parent="1" source="-_hjf6f2TeY9m6gbgmaV-110" target="-_hjf6f2TeY9m6gbgmaV-186">
          <mxGeometry width="50" height="50" relative="1" as="geometry">
            <mxPoint x="1470" y="2090" as="sourcePoint" />
            <mxPoint x="1520" y="2040" as="targetPoint" />
            <Array as="points">
              <mxPoint x="1590" y="2080" />
              <mxPoint x="1590" y="1825" />
            </Array>
          </mxGeometry>
        </mxCell>
        <mxCell id="-_hjf6f2TeY9m6gbgmaV-199" value="" style="endArrow=classic;html=1;rounded=0;exitX=0.429;exitY=1.117;exitDx=0;exitDy=0;exitPerimeter=0;entryX=1;entryY=0.5;entryDx=0;entryDy=0;" edge="1" parent="1" source="-_hjf6f2TeY9m6gbgmaV-104" target="-_hjf6f2TeY9m6gbgmaV-186">
          <mxGeometry width="50" height="50" relative="1" as="geometry">
            <mxPoint x="2030" y="1590" as="sourcePoint" />
            <mxPoint x="2080" y="1540" as="targetPoint" />
            <Array as="points">
              <mxPoint x="2011" y="1520" />
              <mxPoint x="2190" y="1520" />
              <mxPoint x="2190" y="1825" />
            </Array>
          </mxGeometry>
        </mxCell>
        <mxCell id="-_hjf6f2TeY9m6gbgmaV-209" value="" style="endArrow=classic;html=1;rounded=0;exitX=0.108;exitY=1.158;exitDx=0;exitDy=0;exitPerimeter=0;entryX=0.139;entryY=1.135;entryDx=0;entryDy=0;entryPerimeter=0;" edge="1" parent="1" source="-_hjf6f2TeY9m6gbgmaV-10" target="-_hjf6f2TeY9m6gbgmaV-47">
          <mxGeometry width="50" height="50" relative="1" as="geometry">
            <mxPoint x="2380" y="320" as="sourcePoint" />
            <mxPoint x="2430" y="270" as="targetPoint" />
            <Array as="points">
              <mxPoint x="2320" y="240" />
              <mxPoint x="1880" y="240" />
              <mxPoint x="1880" y="580" />
              <mxPoint x="1376" y="580" />
            </Array>
          </mxGeometry>
        </mxCell>
        <mxCell id="-_hjf6f2TeY9m6gbgmaV-210" value="" style="endArrow=classic;html=1;rounded=0;exitX=0.12;exitY=1.033;exitDx=0;exitDy=0;exitPerimeter=0;entryX=0;entryY=0.5;entryDx=0;entryDy=0;" edge="1" parent="1" source="-_hjf6f2TeY9m6gbgmaV-10" target="-_hjf6f2TeY9m6gbgmaV-31">
          <mxGeometry width="50" height="50" relative="1" as="geometry">
            <mxPoint x="2510" y="280" as="sourcePoint" />
            <mxPoint x="2560" y="230" as="targetPoint" />
            <Array as="points">
              <mxPoint x="2328" y="250" />
              <mxPoint x="2060" y="250" />
              <mxPoint x="2060" y="400" />
            </Array>
          </mxGeometry>
        </mxCell>
        <mxCell id="-_hjf6f2TeY9m6gbgmaV-211" value="" style="endArrow=classic;html=1;rounded=0;exitX=0.17;exitY=1.075;exitDx=0;exitDy=0;exitPerimeter=0;entryX=0;entryY=0.5;entryDx=0;entryDy=0;" edge="1" parent="1" source="-_hjf6f2TeY9m6gbgmaV-10" target="-_hjf6f2TeY9m6gbgmaV-18">
          <mxGeometry width="50" height="50" relative="1" as="geometry">
            <mxPoint x="3040" y="450" as="sourcePoint" />
            <mxPoint x="3090" y="400" as="targetPoint" />
            <Array as="points">
              <mxPoint x="2348" y="280" />
              <mxPoint x="2920" y="280" />
              <mxPoint x="2920" y="480" />
            </Array>
          </mxGeometry>
        </mxCell>
      </root>
    </mxGraphModel>
  </diagram>
</mxfile>
